<!DOCTYPE svg PUBLIC "-//W3C//DTD SVG 20010904//EN" "http://www.w3.org/TR/2001/REC-SVG-20010904/DTD/svg10.dtd">
<svg version="1.0" xmlns="http://www.w3.org/2000/svg" width="600px" height="450px" viewBox="0 0 6000 4500" preserveAspectRatio="xMidYMid meet">
<g id="layer101" fill="#3a3b3a" stroke="none">
 <path d="M3285 4389 c-4 -6 -11 -84 -16 -173 -5 -88 -11 -188 -14 -221 -24 -273 -36 -394 -41 -418 -3 -16 -1 -41 5 -56 11 -24 4 -45 -63 -202 l-75 -174 -39 2 c-69 3 -610 138 -716 179 -10 4 -20 -6 -30 -31 -9 -21 -16 -41 -16 -45 0 -4 98 -47 218 -94 336 -133 497 -204 494 -218 -2 -7 -33 -84 -70 -172 -53 -124 -72 -160 -90 -167 -13 -5 -73 -48 -134 -95 l-109 -86 -75 46 c-41 25 -85 46 -97 45 -12 0 -47 -12 -77 -27 l-55 -27 -147 96 c-162 106 -213 125 -305 116 -46 -5 -62 -13 -108 -51 -104 -90 -132 -192 -81 -301 28 -61 61 -89 195 -167 100 -59 103 -61 97 -90 -3 -17 -6 -36 -6 -44 0 -7 -24 -26 -54 -43 -67 -39 -75 -48 -84 -101 l-7 -43 -200 -58 c-110 -32 -203 -59 -206 -59 -11 0 -18 84 -8 97 17 20 0 51 -42 77 l-41 24 36 27 c20 15 36 33 36 41 0 7 -20 73 -43 146 -24 73 -52 172 -62 221 l-18 87 -39 0 -38 0 1 -117 c1 -65 4 -185 8 -268 6 -136 5 -152 -11 -171 -11 -12 -16 -28 -12 -38 4 -9 0 -24 -9 -34 -27 -32 -47 -81 -68 -172 -11 -49 -23 -90 -25 -90 -5 0 -88 60 -334 240 -107 78 -200 144 -207 147 -7 3 -21 -1 -31 -9 -18 -12 -1 -29 225 -217 177 -147 260 -210 299 -225 40 -16 54 -26 57 -46 3 -14 1 -30 -5 -37 -16 -20 -5 -55 24 -76 19 -14 48 -22 90 -25 34 -3 66 -9 72 -14 6 -5 67 -41 136 -80 69 -39 174 -101 234 -138 96 -59 113 -67 133 -57 13 6 22 13 21 17 -2 4 -34 33 -73 65 -38 31 -119 107 -178 167 -90 91 -113 109 -130 103 -12 -3 -38 -7 -57 -9 -19 -2 -22 -1 -7 1 27 4 28 6 25 66 -1 38 5 84 17 120 l18 57 66 20 c36 11 140 42 231 68 l166 48 28 -28 c15 -15 33 -29 39 -29 14 -2 -8 -3 260 12 l218 11 117 -68 c217 -125 211 -120 266 -228 26 -54 53 -99 60 -101 6 -2 22 -6 36 -9 24 -5 29 -16 65 -158 21 -84 40 -160 42 -168 3 -13 -21 -15 -169 -17 -248 -4 -428 -14 -428 -24 0 -5 134 -9 306 -9 l305 0 -8 -22 c-4 -13 -8 -82 -8 -155 0 -118 2 -134 21 -160 15 -19 18 -33 12 -43 -6 -10 4 -54 30 -135 36 -108 43 -120 65 -123 25 -3 25 -3 29 97 3 89 6 103 28 126 19 21 22 29 13 43 -8 14 -7 23 3 37 19 25 19 206 0 267 l-13 46 36 -1 c135 -2 547 18 553 27 15 22 7 24 -99 31 -108 6 -350 31 -389 40 -14 3 -35 -6 -59 -25 l-38 -30 -11 22 c-7 14 -26 26 -48 31 -21 5 -39 16 -42 25 -11 36 -56 245 -56 259 0 24 25 41 52 36 14 -3 39 2 56 11 l31 16 337 -201 338 -202 73 16 c52 12 85 25 114 49 41 33 41 33 34 83 -12 90 -12 90 15 90 44 0 38 37 -14 80 -28 23 -46 46 -46 59 0 29 -7 37 -65 76 -27 19 -107 74 -177 122 l-127 89 22 45 c21 44 23 46 57 40 19 -3 163 -19 320 -36 185 -20 296 -36 315 -47 36 -18 358 -133 375 -133 14 0 5 -51 -16 -91 -15 -30 -10 -39 22 -39 15 0 32 13 52 43 19 29 34 41 48 39 10 -2 44 -6 74 -10 61 -8 106 -33 97 -55 -16 -43 64 -78 132 -58 35 11 119 -6 404 -80 l128 -33 22 22 22 23 -24 6 c-33 9 -209 95 -292 143 -72 42 -102 48 -133 25 -13 -10 -24 -11 -37 -4 -15 8 -19 21 -19 69 0 85 -65 249 -123 312 -14 15 -27 38 -29 50 -2 12 -14 28 -27 34 l-23 12 41 27 c43 29 47 39 71 160 14 71 69 286 76 297 3 4 -3 8 -13 8 -37 0 -63 -13 -69 -34 -11 -35 -140 -357 -167 -415 -15 -32 -37 -60 -55 -71 -37 -23 -48 -54 -32 -86 17 -30 6 -54 -24 -54 -16 0 -27 -7 -31 -20 -5 -17 -13 -20 -38 -15 -18 3 -149 19 -292 35 -143 17 -296 34 -340 40 -117 14 -423 50 -430 50 -3 0 -5 13 -5 28 0 45 -18 57 -130 87 -137 37 -142 40 -100 57 19 8 252 102 517 209 388 156 483 198 483 212 0 14 -5 17 -22 11 -13 -4 -246 -96 -518 -205 -272 -108 -515 -203 -540 -209 -89 -22 -216 33 -408 176 -2 1 21 51 51 110 l54 109 -8 65 c-9 75 -19 57 132 247 93 117 97 121 103 93 3 -18 18 -38 39 -51 32 -21 34 -27 45 -111 6 -48 13 -92 16 -97 3 -5 20 -6 38 -2 l33 7 5 86 5 87 48 26 c58 30 57 30 57 6 0 -11 3 -22 8 -24 4 -3 129 -32 277 -66 149 -33 332 -75 407 -92 134 -31 139 -32 158 -14 11 10 20 22 20 26 0 4 -117 46 -260 93 -143 47 -317 107 -387 132 -99 36 -135 45 -164 40 -35 -6 -37 -4 -43 25 -3 17 -3 62 0 99 9 91 -19 244 -56 315 -15 29 -31 67 -35 84 -7 31 -47 71 -71 71 -19 0 -18 15 2 34 13 14 14 26 5 84 -14 91 -28 247 -41 487 -7 110 -15 238 -18 285 l-7 85 -42 3 c-24 2 -44 -2 -48 -9z m21 -972 c-64 -40 -73 -54 -81 -129 -4 -40 -8 -96 -9 -125 l-1 -52 -40 6 c-22 3 -43 8 -46 12 -4 3 20 69 53 146 33 77 66 156 74 174 l15 35 27 -28 c26 -27 26 -28 8 -39z m-209 -512 c31 -14 59 -27 61 -29 2 -3 -47 -70 -109 -151 -88 -114 -118 -145 -134 -143 -11 2 -19 8 -18 13 4 15 137 335 140 335 1 0 28 -11 60 -25z"/>
 </g>
<g id="layer102" fill="#616160" stroke="none">
 <path d="M3343 4383 c-7 -2 -15 -21 -19 -41 -3 -20 -12 -47 -20 -59 -17 -28 -18 -47 -1 -37 7 5 6 0 -3 -11 -8 -10 -10 -16 -5 -13 19 11 40 -10 40 -41 0 -16 -3 -27 -7 -24 -5 2 -8 -3 -8 -12 0 -10 5 -14 13 -10 6 4 3 0 -7 -9 -15 -12 -16 -18 -7 -29 12 -15 11 -83 -2 -105 -5 -6 -4 -12 1 -12 5 0 9 -7 9 -15 0 -8 -4 -12 -9 -9 -4 3 -8 1 -8 -5 0 -5 5 -13 10 -16 14 -9 -6 -45 -23 -41 -6 1 -9 1 -5 -1 4 -3 10 -4 14 -3 7 2 33 -31 34 -42 0 -5 -6 -8 -14 -8 -8 0 -16 -7 -19 -14 -4 -11 -1 -13 10 -9 12 5 14 3 9 -8 -4 -8 2 -3 14 11 14 16 20 19 16 8 -3 -10 0 -20 6 -24 7 -4 8 -3 4 4 -4 7 -2 12 3 12 16 0 13 -31 -4 -44 -17 -13 -30 -76 -15 -76 5 0 10 -9 10 -20 0 -11 -4 -20 -10 -20 -5 0 -10 5 -10 10 0 6 -6 10 -13 10 -8 0 -14 -6 -14 -14 0 -9 7 -12 16 -8 9 3 13 1 8 -3 -4 -5 1 -18 11 -29 27 -30 37 -60 17 -53 -19 8 -31 -13 -14 -24 11 -7 9 -9 -6 -10 -11 -1 -28 -2 -37 -1 -35 3 -6 -26 38 -37 27 -7 50 -20 60 -36 14 -21 18 -22 30 -11 11 11 12 25 4 64 -9 47 -24 240 -50 637 -7 94 -13 179 -15 190 -2 11 -4 26 -4 33 -1 12 -7 14 -28 5z"/>
 <path d="M3247 3829 c3 -29 1 -49 -6 -53 -6 -4 -11 -18 -11 -32 0 -15 4 -23 10 -19 6 4 8 11 5 16 -4 5 -2 9 3 9 5 0 13 16 19 35 8 26 8 33 0 28 -7 -4 -6 1 2 10 12 15 11 17 -2 17 -9 0 -18 8 -20 18 -3 9 -3 -4 0 -29z"/>
 <path d="M3284 3401 c-16 -10 -34 -24 -40 -32 -12 -15 -26 -118 -28 -206 l-1 -52 -35 5 c-19 3 -44 7 -55 9 -11 2 -26 4 -33 4 -7 1 -11 4 -9 9 3 4 -14 8 -37 8 -68 2 -610 138 -720 180 -22 8 -52 -65 -34 -82 7 -7 99 -46 203 -87 276 -109 645 -265 663 -282 2 -2 -47 -69 -110 -150 -102 -132 -115 -146 -138 -141 -87 20 -78 24 -203 -74 l-118 -91 -77 45 c-42 25 -84 46 -93 46 -31 0 -130 -50 -123 -62 5 -8 11 -6 19 5 12 16 42 16 68 1 8 -5 8 -2 -2 9 -10 13 -10 17 -1 17 6 0 14 -9 17 -20 3 -11 9 -20 13 -20 5 0 6 -9 3 -20 -6 -23 -8 -24 -35 -9 -18 10 -20 9 -14 -6 5 -15 4 -16 -9 -5 -13 11 -14 10 -9 -6 4 -10 3 -16 -1 -11 -5 4 -22 -5 -38 -20 l-29 -28 2 30 c6 92 12 85 -140 185 -160 105 -207 124 -298 117 -57 -4 -67 -9 -116 -51 -103 -88 -133 -191 -85 -296 29 -65 50 -84 183 -162 115 -69 118 -71 112 -100 -3 -17 -6 -36 -6 -44 0 -7 -24 -26 -54 -43 -67 -39 -75 -48 -84 -101 l-7 -43 -200 -58 c-110 -32 -203 -59 -206 -59 -11 0 -18 85 -8 95 13 13 11 28 -6 51 -8 10 -15 15 -14 9 1 -5 1 -22 0 -38 -1 -27 -1 -27 -31 -12 -55 28 -65 19 -45 -40 6 -16 5 -17 -4 -5 -7 10 -11 11 -11 3 0 -7 -9 -13 -21 -13 -14 0 -19 -5 -16 -14 3 -8 0 -19 -7 -25 -7 -6 -12 -26 -11 -45 0 -19 -3 -32 -7 -30 -4 3 -8 -1 -8 -9 0 -15 -45 -57 -61 -57 -8 0 -8 4 0 13 6 8 8 17 5 20 -4 4 1 18 10 31 9 14 16 29 16 33 0 4 -4 2 -9 -6 -5 -8 -11 -9 -15 -3 -3 6 1 18 10 27 9 9 18 34 20 55 3 46 11 63 26 54 6 -4 8 -2 4 4 -3 6 1 17 9 25 11 12 13 22 5 41 -12 32 -20 32 -49 3 -13 -15 -19 -30 -15 -41 4 -9 0 -24 -9 -34 -27 -31 -47 -80 -67 -168 -11 -47 -23 -91 -26 -96 -3 -4 -14 2 -25 14 -14 17 -18 19 -13 5 4 -10 22 -29 42 -42 27 -18 40 -22 54 -14 12 6 18 6 18 -1 0 -5 7 -10 15 -10 9 0 18 -7 22 -16 4 -10 8 -12 13 -5 4 8 20 6 53 -5 26 -9 44 -20 41 -25 -3 -5 0 -9 5 -9 6 0 11 -9 11 -20 0 -23 -10 -26 -28 -7 -8 7 -46 13 -100 14 -72 2 -88 5 -94 20 -6 13 -7 12 -4 -6 3 -14 1 -31 -5 -37 -17 -21 -6 -55 24 -78 20 -14 47 -21 95 -24 57 -3 71 -1 95 18 15 12 25 25 22 30 -3 5 1 11 7 13 10 4 10 6 1 6 -20 1 -16 16 17 64 17 25 30 49 30 55 0 5 7 33 17 61 19 59 -17 43 313 139 l166 48 28 -28 c15 -15 33 -29 39 -29 14 -2 -8 -3 260 12 l218 11 117 -68 c217 -125 211 -120 266 -228 26 -54 53 -99 60 -101 6 -2 22 -6 36 -9 24 -5 29 -16 68 -173 24 -92 42 -181 42 -198 0 -16 -3 -84 -6 -150 -7 -140 6 -207 34 -182 26 21 46 32 38 19 -3 -6 -2 -13 4 -17 5 -3 10 -1 10 5 0 7 6 8 19 0 13 -7 22 -7 26 0 11 18 42 11 52 -13 11 -22 11 -22 22 6 15 40 14 205 -3 259 l-13 46 36 -1 c135 -2 547 18 553 27 15 22 7 24 -99 31 -108 6 -350 31 -389 40 -14 3 -35 -6 -59 -25 l-38 -30 -11 22 c-7 14 -26 26 -48 31 -21 5 -39 16 -42 25 -11 36 -56 245 -56 259 0 24 25 41 52 36 14 -3 39 2 56 11 l31 16 337 -201 337 -201 74 16 c53 11 86 26 115 49 40 32 40 33 33 82 -11 82 -11 90 5 91 8 1 21 2 28 3 26 2 10 41 -33 77 -27 22 -45 45 -45 58 0 29 -7 37 -65 76 -27 19 -107 74 -177 122 l-127 89 22 45 c21 44 23 46 57 40 19 -3 163 -19 320 -36 235 -26 294 -36 335 -55 28 -13 121 -47 208 -77 l157 -53 -6 -30 c-4 -16 -12 -42 -20 -56 -15 -30 -10 -39 23 -39 17 0 31 12 51 45 22 37 31 45 47 40 11 -4 46 -9 77 -12 32 -3 63 -12 69 -19 14 -17 33 -19 23 -2 -4 6 -3 8 3 5 5 -4 20 3 31 14 22 20 30 35 13 25 -5 -3 -11 1 -14 9 -4 10 3 16 26 20 70 12 82 11 81 -8 -2 -17 -1 -17 16 -2 10 9 24 14 29 10 14 -8 14 -45 0 -45 -5 0 -8 4 -5 9 6 10 -7 7 -109 -26 -52 -17 -60 -23 -63 -47 -2 -15 2 -33 8 -41 16 -19 79 -27 119 -16 37 11 59 7 349 -66 169 -42 185 -45 200 -30 9 9 14 18 11 21 -9 8 -200 96 -209 96 -6 0 -10 5 -10 10 0 6 -6 10 -12 10 -7 0 -41 18 -76 40 -68 43 -84 47 -122 26 -42 -24 -60 -5 -60 64 0 85 -65 249 -123 312 -14 15 -27 38 -29 50 -2 12 -14 28 -27 34 l-23 12 41 27 c43 29 47 39 71 160 14 71 69 286 76 297 6 9 -22 10 -53 2 -14 -4 -26 -19 -34 -43 -16 -50 -132 -334 -162 -400 -15 -32 -37 -60 -55 -71 -37 -23 -48 -54 -32 -86 17 -30 6 -54 -24 -54 -16 0 -27 -7 -31 -20 -5 -17 -13 -20 -38 -15 -18 3 -147 18 -287 35 -140 16 -371 43 -513 60 -142 16 -260 30 -262 30 -3 0 -5 12 -5 28 0 15 -4 33 -9 41 -5 8 -62 29 -127 47 -105 29 -133 44 -134 66 0 3 33 19 73 34 39 15 117 44 171 65 55 21 102 36 105 33 3 -3 -5 -7 -17 -11 -22 -5 -167 -76 -146 -71 23 6 653 262 651 265 -2 1 -18 -2 -37 -7 -19 -5 -35 -8 -37 -6 -5 4 251 106 267 106 5 0 10 5 10 10 0 6 -3 10 -6 10 -3 0 -236 -92 -518 -204 -282 -113 -532 -210 -557 -216 -88 -22 -215 33 -407 176 -2 1 21 51 51 110 l54 109 -8 65 c-9 75 -19 57 132 247 93 117 97 121 103 93 3 -19 18 -38 40 -52 28 -18 35 -31 39 -63 11 -97 18 -138 22 -145 3 -4 19 -5 37 -1 l33 7 5 86 5 87 49 26 c50 26 61 26 61 -3 0 -11 8 -17 22 -16 13 0 21 -2 18 -4 -3 -3 108 -31 247 -62 139 -32 317 -72 395 -90 138 -32 144 -33 163 -15 11 10 20 22 20 26 0 5 -102 42 -227 83 -126 41 -299 99 -385 129 -112 39 -169 53 -197 51 -36 -3 -39 -1 -45 27 -3 17 -3 62 0 99 9 92 -19 244 -57 317 -16 30 -29 61 -29 68 0 7 -6 12 -12 12 -7 -1 -30 3 -51 7 -21 5 -40 6 -43 3 -10 -10 30 -68 43 -63 7 3 18 -4 24 -16 8 -15 8 -18 0 -14 -7 4 -11 -1 -11 -12 0 -14 6 -19 18 -17 9 1 11 0 5 -2 -7 -3 -13 -12 -13 -21 0 -15 2 -15 10 -2 8 12 10 11 10 -5 0 -12 5 -26 11 -32 8 -8 8 -16 0 -30 -11 -17 -12 -16 -6 3 3 13 -1 26 -12 35 -15 12 -16 12 -11 -7 5 -21 -6 -37 -41 -59 -9 -5 -12 -4 -8 1 3 6 2 16 -4 24 -7 12 -9 10 -9 -9 0 -21 -2 -22 -17 -10 -14 12 -16 12 -11 -1 7 -18 -12 -38 -31 -32 -8 3 -11 0 -7 -7 4 -6 1 -11 -8 -11 -9 0 -16 -4 -16 -10 0 -5 5 -10 11 -10 5 0 7 -5 3 -12 -4 -6 -3 -8 4 -5 5 4 17 4 26 1 14 -5 14 -7 0 -22 -14 -14 -13 -16 13 -27 15 -7 30 -9 33 -5 9 12 55 20 68 11 10 -6 10 -14 3 -34 -8 -21 -17 -27 -40 -27 -43 0 -82 -17 -118 -53 -37 -35 -44 -24 -11 18 l21 27 -46 -3 c-53 -5 -60 14 -8 19 26 3 31 7 26 20 -4 9 -9 24 -12 32 -7 24 36 129 58 143 10 6 19 17 19 24 0 7 5 13 11 13 6 0 9 -7 5 -15 -3 -8 -2 -15 3 -15 5 0 11 9 14 20 3 11 1 18 -4 14 -5 -3 -9 2 -9 10 0 8 5 18 10 21 6 3 10 11 10 18 0 6 -6 2 -14 -9 -8 -10 -18 -16 -22 -12 -4 4 -1 14 6 23 11 14 7 19 -12 16 -5 0 -8 4 -8 9 0 6 4 10 9 10 5 0 4 11 -2 25 -7 14 -15 25 -19 25 -5 0 -8 9 -8 21 0 11 -4 18 -8 15 -4 -2 -6 10 -4 29 5 42 -7 49 -44 26z m286 -485 c0 -10 -10 -8 -40 6 -22 11 -40 23 -40 26 0 3 3 2 7 -1 9 -10 34 14 27 27 -3 6 6 -2 20 -17 14 -15 26 -34 26 -41z m-1710 -306 c0 -10 3 -11 8 -3 8 13 37 12 49 -2 4 -4 2 -5 -4 -1 -7 4 -13 3 -13 -3 0 -5 6 -12 13 -14 6 -3 -2 -6 -18 -6 -17 -1 -36 -6 -43 -13 -9 -9 -12 -9 -12 1 0 8 -6 11 -15 7 -21 -8 -19 11 3 24 14 9 13 10 -8 4 -21 -6 -23 -5 -13 7 16 20 53 19 53 -1z m-100 -45 c0 -19 -27 -73 -48 -97 -18 -21 -58 -24 -65 -5 -7 18 16 79 33 87 8 4 24 12 35 18 29 16 45 14 45 -3z m1148 -40 c-13 -40 -1 -60 47 -81 17 -7 23 -13 13 -14 -21 0 -78 47 -78 66 0 8 -10 19 -22 24 -23 9 -23 9 -2 9 12 1 24 8 28 16 12 31 24 14 14 -20z m-315 -150 c-16 -22 -33 -32 -33 -21 0 15 13 35 20 31 5 -3 11 -1 15 5 3 5 8 10 11 10 3 0 -3 -11 -13 -25z m22 -11 c-9 -9 -19 -13 -23 -10 -3 4 0 11 8 16 24 15 33 11 15 -6z m-294 -219 c2 -118 -50 -179 -146 -172 -28 2 -72 14 -98 27 -52 26 -74 46 -33 31 33 -13 81 5 126 46 23 22 38 29 46 22 7 -6 16 -4 25 8 10 11 11 17 3 20 -8 3 1 25 22 60 19 31 34 62 35 67 2 32 19 -58 20 -109z m697 -59 c23 -16 42 -31 42 -33 0 -7 -58 29 -88 55 -32 27 -14 19 46 -22z m46 -95 c-5 -5 -112 68 -121 82 -3 5 24 -10 59 -34 36 -24 64 -46 62 -48z m92 -1 c32 -22 54 -40 51 -40 -9 0 -117 70 -117 75 0 10 10 4 66 -35z m-16 -51 l35 -30 -42 27 c-24 15 -43 28 -43 30 0 11 18 0 50 -27z m1848 -116 c-2 -12 -13 -18 -31 -18 -15 1 -27 -3 -27 -7 0 -4 -6 -8 -14 -8 -9 0 -12 8 -8 25 4 22 10 25 44 25 32 0 39 -3 36 -17z m-3703 -92 c3 -6 14 -8 25 -6 21 4 71 -33 55 -41 -66 -29 -72 -48 -33 -91 30 -32 18 -51 -13 -22 -46 43 -60 73 -57 122 3 45 10 58 23 38z m3659 -83 c9 -12 16 -32 16 -43 0 -25 -36 -85 -51 -85 -11 0 -7 58 5 79 12 19 -4 51 -25 51 -11 0 -17 5 -14 10 11 18 53 11 69 -12z m-1442 -144 c21 -15 38 -29 38 -31 0 -5 -69 35 -84 49 -22 19 11 6 46 -18z m152 -99 c27 -16 64 -42 83 -57 20 -16 40 -28 45 -28 5 0 14 -4 21 -10 24 -20 168 -120 188 -131 12 -6 19 -13 16 -15 -5 -6 -444 282 -453 297 -5 9 4 4 100 -56z m205 -62 c2 -2 0 -3 -5 -3 -5 0 -22 12 -39 26 l-30 26 35 -23 c19 -12 37 -24 39 -26z m-731 -396 c6 -5 12 -15 12 -22 0 -10 -8 -11 -35 -2 -32 10 -44 25 -29 40 7 6 33 -1 52 -16z m-8 -89 c0 -27 -6 -41 -20 -50 -23 -14 -26 -28 -7 -28 16 -1 52 -28 45 -35 -3 -3 -13 2 -22 11 -19 18 -25 16 -31 -14 -2 -15 0 -19 11 -15 13 5 15 1 18 -35 1 -7 8 -17 16 -22 13 -8 13 -11 -2 -26 -14 -14 -20 -15 -32 -4 -9 7 -16 19 -16 27 0 10 -7 14 -20 10 -15 -4 -20 0 -20 15 0 12 -11 31 -25 44 -26 24 -33 58 -15 69 6 3 10 -2 10 -12 0 -19 18 -43 32 -43 4 0 8 31 8 68 0 38 2 71 5 74 3 2 19 5 35 5 28 0 30 -3 30 -39z"/>
 <path d="M2105 2000 c11 -5 27 -9 35 -9 13 -1 13 0 0 9 -8 5 -24 9 -35 9 l-20 0 20 -9z"/>
 <path d="M3470 3390 c6 -11 16 -20 22 -20 6 0 3 9 -7 20 -10 11 -20 20 -22 20 -2 0 1 -9 7 -20z"/>
 <path d="M2357 2443 c-13 -12 -7 -21 11 -18 9 2 22 4 27 4 6 1 3 6 -5 11 -18 12 -24 12 -33 3z"/>
 <path d="M1163 2220 c0 -36 2 -50 4 -32 2 17 2 47 0 65 -2 17 -4 3 -4 -33z"/>
 <path d="M1173 1990 c0 -47 2 -66 4 -42 2 23 2 61 0 85 -2 23 -4 4 -4 -43z"/>
 <path d="M680 1797 c0 -3 24 -22 53 -43 28 -21 59 -44 67 -51 33 -31 152 -115 155 -111 3 2 -44 40 -103 83 -59 44 -122 90 -139 103 -18 14 -33 22 -33 19z"/>
 <path d="M1333 1385 c0 -55 2 -61 21 -63 11 0 22 -6 24 -12 2 -5 8 -10 13 -10 6 0 7 6 2 13 -4 6 5 4 20 -5 14 -10 31 -18 37 -18 17 0 -7 38 -36 57 -21 13 -30 14 -45 5 -23 -14 -26 -9 -32 53 -3 26 -4 18 -4 -20z"/>
 <path d="M1466 1250 c9 -16 20 -30 26 -30 6 0 5 6 -2 15 -11 13 -10 14 6 9 13 -5 10 0 -8 14 -35 29 -39 28 -22 -8z"/>
 <path d="M1260 1266 c0 -3 12 -11 28 -18 15 -8 40 -23 57 -34 16 -10 26 -14 22 -7 -4 6 -27 23 -51 37 -44 25 -56 30 -56 22z"/>
 <path d="M1690 1077 c0 -2 16 -18 35 -36 19 -17 35 -28 35 -24 0 5 -16 21 -35 36 -19 15 -35 26 -35 24z"/>
 <path d="M2629 940 c-131 -5 -234 -12 -245 -19 -14 -8 60 -10 281 -10 165 0 294 3 288 6 -7 2 -13 11 -13 19 0 10 -12 14 -42 12 -24 0 -145 -4 -269 -8z"/>
 <path d="M3020 570 c13 -8 12 -12 -7 -25 -35 -25 -29 -50 16 -68 21 -9 46 -24 56 -33 16 -17 17 -17 13 2 -2 13 6 24 26 34 72 37 56 80 -30 80 -29 0 -56 5 -59 10 -3 6 -12 10 -18 10 -7 0 -6 -4 3 -10z"/>
 </g>
<g id="layer103" fill="#857d84" stroke="none">
 <path d="M3285 3402 c-45 -28 -52 -41 -59 -107 -3 -33 -8 -85 -12 -116 l-6 -56 36 -21 c20 -12 36 -28 36 -37 0 -8 -2 -15 -5 -15 -12 0 -85 53 -85 62 0 6 -11 8 -24 4 -12 -3 -26 -2 -30 1 -4 4 -17 8 -29 8 -13 0 -21 6 -19 13 2 10 -2 10 -17 3 -10 -6 -21 -7 -25 -4 -3 3 -14 7 -24 8 -9 1 -28 5 -42 9 -14 3 -34 8 -45 10 -11 1 -31 6 -45 9 -14 4 -70 17 -125 31 -137 33 -286 73 -374 102 -41 13 -78 21 -82 18 -13 -8 -7 -75 8 -81 7 -3 11 -8 9 -12 -2 -3 6 -7 19 -7 12 -1 67 -22 121 -47 55 -25 142 -62 194 -83 52 -20 102 -41 110 -45 37 -21 198 -87 228 -93 17 -4 32 -11 32 -15 0 -5 29 -20 65 -36 36 -15 65 -29 65 -31 0 -13 -226 -294 -235 -294 -7 0 -10 -10 -8 -24 3 -13 0 -33 -6 -45 -10 -18 -8 -25 13 -46 14 -14 34 -25 46 -25 11 0 20 -4 20 -9 0 -14 -42 0 -77 26 -18 13 -33 20 -33 15 0 -17 -50 0 -50 17 -1 25 -12 96 -15 100 -7 6 -125 -92 -125 -103 0 -18 -93 -206 -102 -206 -4 0 -8 4 -8 8 0 10 -1 10 -110 16 -79 3 -166 20 -182 35 -3 3 -9 32 -11 64 -3 32 -7 60 -9 62 -2 1 -61 41 -133 88 -144 94 -194 115 -275 115 -49 0 -52 -1 -25 -10 17 -5 41 -11 55 -14 14 -3 40 -14 58 -25 18 -10 43 -19 55 -19 15 0 23 -6 24 -19 2 -22 -11 -27 -91 -30 -32 -1 -67 -6 -78 -10 -35 -13 -76 -1 -81 23 -3 17 -5 15 -6 -6 0 -16 -4 -28 -8 -28 -5 0 -15 -13 -25 -29 -25 -44 -61 -65 -86 -50 -11 7 -18 19 -15 26 3 7 0 13 -6 13 -20 0 -13 -120 10 -170 29 -65 50 -84 183 -162 115 -69 118 -71 112 -100 -3 -17 -6 -36 -6 -44 0 -7 -24 -26 -54 -43 -67 -39 -75 -48 -84 -102 l-7 -42 -87 -25 c-57 -16 -85 -29 -81 -36 3 -6 3 -8 -2 -4 -4 4 -13 4 -19 -1 -18 -14 -48 -22 -41 -11 3 6 1 10 -4 10 -6 0 -11 -7 -11 -15 0 -8 -8 -15 -18 -15 -10 0 -26 -6 -37 -14 -11 -7 -31 -17 -45 -21 -124 -38 -154 -63 -115 -95 20 -17 41 -12 296 63 l215 63 28 -28 c15 -15 33 -29 39 -29 14 -2 -8 -3 260 12 l218 11 117 -68 c217 -125 211 -120 266 -228 26 -54 53 -99 60 -101 6 -2 23 -6 37 -9 24 -5 28 -16 72 -194 39 -154 46 -194 37 -216 -13 -36 -13 -224 1 -263 9 -28 12 -30 34 -19 22 10 25 18 25 64 0 39 -5 58 -20 74 -21 22 -27 72 -11 82 5 4 12 -7 16 -24 4 -16 11 -30 16 -30 5 0 6 12 2 28 -3 15 -8 71 -10 126 -4 77 -2 97 8 94 7 -2 18 -27 24 -54 10 -45 13 -49 38 -47 23 1 27 -2 28 -25 1 -34 5 -58 25 -152 l16 -74 -26 -23 c-20 -17 -23 -24 -13 -30 8 -4 19 -17 25 -28 10 -19 11 -19 21 8 15 40 14 205 -3 259 l-13 46 36 -1 c135 -2 547 18 553 27 15 22 7 24 -99 31 -111 7 -350 32 -391 41 -17 3 -33 -6 -66 -39 l-44 -43 -33 16 c-34 15 -49 28 -49 43 0 14 38 7 64 -14 20 -16 26 -17 26 -6 0 20 -19 33 -57 42 -18 3 -34 14 -37 23 -11 35 -56 245 -56 259 0 24 25 41 52 36 14 -3 39 2 56 11 l31 16 337 -201 337 -201 74 16 c87 19 153 64 153 103 0 56 -21 109 -48 121 -57 24 -548 359 -544 370 2 8 13 6 33 -9 17 -12 33 -19 36 -15 8 8 44 -14 38 -23 -2 -5 13 -20 35 -35 44 -29 55 -32 44 -13 -4 7 -3 9 2 4 5 -5 9 -14 9 -20 0 -7 8 -11 17 -11 10 1 16 -3 15 -10 -1 -6 6 -10 15 -10 10 1 16 -2 13 -6 -3 -4 6 -15 20 -24 29 -19 39 -20 29 -4 -4 7 -3 8 5 4 6 -4 9 -11 6 -16 -3 -5 7 -17 22 -26 15 -10 62 -40 103 -67 41 -28 83 -50 93 -49 9 0 15 -3 12 -7 -6 -11 26 -37 45 -35 8 1 21 2 28 3 7 0 10 6 7 11 -4 6 -10 8 -15 5 -5 -3 -12 -1 -15 5 -6 9 -91 68 -410 282 -38 26 -79 54 -90 63 -10 8 -23 15 -27 15 -4 0 -8 7 -8 15 0 8 4 15 10 15 5 0 116 -73 246 -162 130 -90 255 -176 278 -191 l41 -28 -48 43 c-26 24 -47 52 -47 63 0 28 -8 37 -65 75 -27 19 -107 74 -177 122 l-127 89 22 45 c21 44 23 46 57 40 19 -3 163 -19 320 -36 234 -26 294 -36 335 -55 28 -13 120 -47 205 -76 85 -29 157 -56 160 -60 3 -3 17 -5 33 -3 15 1 25 -1 22 -6 -7 -12 82 -40 128 -40 24 0 49 -7 60 -18 13 -10 17 -11 12 -3 -6 11 -4 13 9 8 14 -5 17 -3 12 8 -3 8 -2 14 2 14 4 -1 13 -1 20 0 17 1 -24 41 -44 41 -8 0 -22 16 -30 36 -12 29 -18 34 -36 28 -17 -5 -20 -3 -16 14 7 24 -22 35 -57 22 -13 -5 -26 -6 -29 -2 -4 3 -13 7 -21 8 -11 2 -12 -2 -2 -17 6 -10 22 -19 34 -19 13 0 23 -6 23 -14 0 -13 -6 -13 -42 -2 -34 10 -43 17 -41 33 2 15 -6 24 -27 32 -17 6 -42 16 -57 21 -16 6 -39 19 -53 30 l-25 20 153 -6 c102 -3 152 -1 152 6 0 5 -7 10 -15 10 -19 0 -19 16 0 24 22 8 62 -10 69 -31 3 -10 8 -39 10 -64 3 -26 15 -63 27 -83 l21 -36 62 6 c69 7 106 -5 106 -34 0 -14 -10 -18 -45 -20 -25 -1 -68 -11 -95 -23 -43 -18 -50 -26 -50 -49 0 -15 6 -32 13 -38 22 -17 74 -24 114 -13 29 8 57 6 121 -8 81 -18 85 -18 120 0 19 10 30 13 24 7 -7 -7 -12 -16 -12 -22 0 -5 3 -6 6 -3 4 4 20 -3 36 -14 21 -15 38 -20 59 -15 20 4 31 1 35 -7 2 -7 17 -13 32 -12 15 0 45 -7 67 -16 38 -17 55 -17 55 0 0 5 -20 12 -45 15 -25 4 -45 11 -45 15 0 5 -13 11 -29 14 -16 4 -30 14 -33 25 -4 12 -21 23 -51 32 -28 7 -63 28 -87 51 -22 22 -51 39 -63 39 -18 0 -19 2 -7 10 13 9 13 10 0 10 -8 0 -28 -9 -45 -20 -27 -18 -31 -18 -47 -3 -13 12 -18 31 -18 74 0 85 -65 249 -124 312 -15 16 -28 36 -29 45 -4 25 -16 42 -30 42 -8 -1 -6 -5 3 -13 21 -16 19 -42 -2 -42 -9 0 -20 -3 -23 -7 -4 -4 -13 -4 -20 -2 -8 3 -34 -3 -59 -14 -62 -28 -77 -9 -31 41 19 19 36 27 60 27 29 0 88 33 134 76 9 8 29 119 23 128 -11 19 -11 35 2 30 7 -3 18 26 31 78 10 46 27 109 36 141 16 53 16 57 1 57 -39 0 -61 -14 -71 -42 -16 -45 -13 -48 8 -9 11 20 21 29 25 23 4 -6 -1 -23 -10 -37 -9 -14 -13 -25 -10 -25 4 0 1 -6 -6 -14 -11 -12 -14 -12 -19 2 -4 11 -11 0 -22 -32 -13 -38 -14 -53 -5 -70 10 -19 10 -20 -6 -7 -14 12 -16 12 -10 -4 5 -13 4 -16 -4 -11 -7 4 -13 1 -14 -6 0 -7 -2 -18 -2 -24 -1 -6 -9 -22 -19 -37 -22 -34 -22 -34 12 -32 27 2 29 0 20 -22 -12 -32 -12 -33 5 -27 8 3 16 -4 19 -17 7 -25 -10 -52 -25 -43 -6 4 -5 10 3 15 11 7 10 9 -3 9 -10 0 -18 -5 -18 -11 0 -8 -4 -8 -15 1 -13 11 -13 15 0 33 19 28 19 41 -1 33 -8 -3 -12 -2 -9 4 3 6 2 10 -3 10 -12 0 -33 -56 -25 -64 4 -3 2 -6 -4 -6 -6 0 -20 -22 -31 -48 -13 -30 -31 -53 -47 -60 -36 -17 -52 -55 -35 -86 17 -32 7 -56 -24 -56 -16 0 -27 -7 -31 -20 -5 -17 -13 -20 -38 -15 -18 3 -147 18 -287 35 -140 16 -371 43 -513 60 -142 16 -260 30 -262 30 -3 0 -5 13 -5 28 0 42 -18 57 -90 76 -155 40 -201 58 -189 73 17 20 8 23 -37 12 -69 -18 -169 17 -294 103 -58 39 -106 72 -108 74 -2 1 21 51 51 110 48 99 53 114 49 162 -2 28 -7 52 -11 52 -4 0 -15 -17 -26 -37 -10 -22 -20 -32 -22 -25 -6 17 38 80 176 254 103 130 109 136 114 109 10 -48 60 -76 138 -76 55 0 72 5 107 28 23 15 53 27 67 27 26 0 33 14 14 25 -6 4 -8 13 -5 20 3 8 0 16 -7 18 -9 3 -11 35 -9 111 3 133 -24 275 -64 344 -16 26 -28 54 -26 62 1 8 -1 10 -4 3 -4 -9 -14 -8 -40 3 -42 18 -46 1 -4 -21 41 -21 58 -51 75 -131 13 -64 13 -70 -5 -99 -14 -21 -20 -25 -20 -13 0 14 -4 16 -24 8 -13 -5 -27 -6 -30 -3 -3 4 -6 1 -6 -5 0 -6 4 -13 10 -17 13 -8 1 -35 -17 -35 -25 0 -5 -17 28 -24 35 -7 99 -65 99 -90 0 -15 -3 -15 -30 -1 -62 32 -165 12 -222 -42 -34 -32 -39 -11 -6 24 l21 23 -34 0 c-19 0 -40 -5 -47 -12 -9 -9 -12 -7 -12 10 0 16 8 23 34 27 33 7 33 7 19 36 -10 21 -11 33 -3 48 15 29 20 115 9 153 -6 22 -6 34 1 36 7 3 7 9 -1 18 -7 8 -9 30 -6 53 5 38 -6 61 -27 61 -6 0 -5 -4 2 -8 9 -7 8 -13 -8 -27 -20 -18 -20 -18 -20 5 0 14 16 37 42 61 47 43 48 48 3 21z m97 -574 c-9 -9 -15 -9 -24 0 -9 9 -7 12 12 12 19 0 21 -3 12 -12z m153 -68 c-3 -5 -13 -10 -21 -10 -8 0 -12 5 -9 10 3 6 13 10 21 10 8 0 12 -4 9 -10z m-1212 -615 c1 -78 -15 -119 -60 -155 -39 -31 -133 -24 -198 14 -25 15 -45 28 -45 29 0 2 15 1 34 -1 68 -8 176 79 226 182 22 47 24 48 33 25 5 -13 9 -55 10 -94z m678 -46 c55 -40 66 -49 54 -49 -14 1 -122 80 -109 80 6 0 31 -14 55 -31z m2069 -46 c0 -12 -4 -23 -10 -23 -9 0 -11 6 -14 43 -1 6 -7 16 -14 20 -7 5 -10 13 -6 18 9 15 44 -31 44 -58z m-2000 -67 c0 -5 -10 -1 -22 7 -13 9 -42 29 -65 44 -24 15 -43 31 -43 36 0 10 130 -76 130 -87z m103 -6 c20 -14 37 -29 37 -33 0 -10 -116 68 -126 85 -8 12 2 6 89 -52z m-11 -55 c34 -25 59 -45 54 -45 -9 0 -126 79 -126 85 0 10 13 3 72 -40z m-271 -51 l24 -27 -27 18 c-16 9 -28 21 -28 26 0 14 5 11 31 -17z m1987 -430 c31 -3 35 -7 12 -13 -27 -8 -54 5 -44 21 4 6 9 6 13 2 3 -5 12 -9 19 -10z m422 -99 c7 -8 21 -15 31 -15 11 0 19 -4 19 -9 0 -11 -25 -21 -48 -20 -11 0 -13 2 -4 6 10 4 10 8 1 19 -6 8 -14 12 -18 10 -3 -2 -12 2 -19 10 -11 12 -10 14 6 14 11 0 25 -7 32 -15z m-1364 -95 c24 -17 44 -33 44 -36 0 -3 -21 9 -47 27 -58 39 -58 39 -49 39 4 0 27 -14 52 -30z m1538 18 c-7 -11 -34 -10 -34 1 0 6 9 9 19 8 11 0 17 -5 15 -9z"/>
 <path d="M3386 3013 c-11 -11 -6 -23 9 -23 8 0 15 4 15 9 0 13 -16 22 -24 14z"/>
 <path d="M3636 2819 c3 -5 -1 -9 -8 -9 -7 0 -1 -12 15 -25 25 -23 36 -46 20 -44 -19 3 -34 -2 -29 -10 7 -11 64 -24 94 -22 12 2 22 -2 22 -8 0 -6 5 -11 11 -11 5 0 7 5 4 10 -3 6 -2 10 4 10 5 0 11 -5 13 -12 3 -7 14 -9 34 -3 19 6 24 9 12 12 -9 2 -18 10 -21 17 -4 9 4 11 25 8 20 -3 27 -9 24 -18 -3 -8 -1 -14 4 -14 6 0 10 7 10 15 0 22 23 18 50 -7 14 -13 26 -22 27 -20 9 7 33 0 28 -8 -3 -5 -1 -10 4 -10 6 0 11 6 11 13 0 9 2 9 8 0 4 -6 21 -14 37 -17 77 -15 91 -19 102 -33 7 -9 19 -13 29 -9 15 6 15 4 3 -10 -13 -16 -12 -16 8 -6 16 9 23 9 26 -1 3 -7 6 -8 6 -1 1 11 20 9 108 -11 50 -12 97 -31 100 -41 2 -7 -9 -17 -24 -23 l-28 -10 26 2 c28 3 59 23 59 38 0 4 -93 38 -207 74 -115 37 -224 73 -243 81 -19 8 -48 17 -65 20 -16 3 -35 10 -42 16 -7 6 -13 7 -13 2 0 -4 -5 -3 -11 3 -6 6 -18 9 -25 6 -8 -3 -14 1 -14 8 0 7 -3 9 -6 6 -4 -3 -16 0 -27 8 -15 11 -25 11 -40 3 -16 -8 -19 -8 -14 4 3 8 0 15 -6 15 -7 1 -33 5 -59 11 -26 5 -45 5 -42 1z"/>
 <path d="M1722 2614 c-49 -43 -90 -100 -79 -110 2 -3 10 9 17 25 12 30 25 39 70 47 14 3 30 10 35 16 7 8 6 9 -4 3 -10 -6 -11 -2 -6 16 4 13 8 24 9 25 0 1 10 6 21 12 14 8 15 11 5 11 -8 0 -39 -20 -68 -45z"/>
 <path d="M3447 2630 c-3 -11 -1 -20 4 -20 5 0 9 -18 9 -41 0 -32 -3 -40 -17 -38 -29 2 -43 -1 -43 -10 0 -5 15 -5 33 -2 31 7 32 8 33 64 1 58 -9 84 -19 47z"/>
 <path d="M2451 2497 c3 -4 34 -25 70 -47 35 -22 51 -30 35 -16 -27 22 -118 77 -105 63z"/>
 <path d="M1163 2195 c0 -22 2 -30 4 -17 2 12 2 30 0 40 -3 9 -5 -1 -4 -23z"/>
 <path d="M4045 2211 c-22 -11 -35 -19 -30 -19 14 -1 93 36 80 37 -5 0 -28 -8 -50 -18z"/>
 <path d="M3925 2195 c-25 -12 -26 -14 -5 -9 28 7 60 23 45 23 -5 0 -23 -6 -40 -14z"/>
 <path d="M3815 2153 c-64 -27 -86 -40 -45 -28 35 11 127 53 115 53 -5 0 -37 -11 -70 -25z"/>
 <path d="M3585 2059 c-22 -10 -29 -16 -15 -13 28 7 80 33 65 33 -5 0 -28 -9 -50 -20z"/>
 <path d="M1173 1985 c0 -33 2 -45 4 -27 2 18 2 45 0 60 -2 15 -4 0 -4 -33z"/>
 <path d="M1160 1874 c-18 -19 -21 -27 -12 -33 10 -6 8 -13 -6 -32 -34 -43 -51 -86 -72 -175 -20 -87 -20 -114 0 -114 5 0 8 14 6 32 -2 17 0 43 5 57 4 14 13 46 20 71 7 25 17 51 22 58 5 6 6 12 2 12 -8 0 34 72 48 81 5 4 4 10 -2 14 -9 5 -9 10 0 21 6 7 15 11 20 8 5 -3 6 2 3 10 -8 20 -6 21 -34 -10z"/>
 <path d="M1354 1838 c1 -24 -3 -32 -15 -30 -20 3 -16 -62 5 -83 24 -24 29 -18 23 30 -4 25 -2 47 3 50 14 8 12 28 -3 49 -12 16 -13 14 -13 -16z"/>
 <path d="M680 1796 c0 -2 14 -14 30 -26 17 -12 30 -19 30 -16 0 2 -13 14 -30 26 -16 12 -30 19 -30 16z"/>
 <path d="M750 1746 c0 -2 14 -14 30 -26 17 -12 30 -19 30 -16 0 2 -13 14 -30 26 -16 12 -30 19 -30 16z"/>
 <path d="M1235 1598 c-11 -6 -23 -15 -26 -20 -3 -6 -9 -8 -13 -6 -4 1 -15 -10 -24 -27 -9 -16 -20 -31 -24 -33 -21 -9 -3 -23 50 -38 58 -16 94 -47 85 -71 -6 -14 -33 -18 -33 -5 0 10 -2 10 -90 18 -81 6 -115 -9 -115 -50 0 -45 41 -70 123 -74 79 -5 115 15 115 62 0 16 12 48 28 71 16 24 29 49 29 56 1 8 7 31 14 52 11 30 11 36 1 27 -10 -8 -22 -3 -48 20 -38 33 -43 34 -72 18z"/>
 <path d="M1333 1400 c0 -25 2 -35 4 -22 2 12 2 32 0 45 -2 12 -4 2 -4 -23z"/>
 <path d="M4748 1361 c-9 -13 -23 -18 -42 -16 -19 2 -25 0 -18 -7 15 -15 53 -5 70 20 18 27 9 30 -10 3z"/>
 <path d="M2765 940 c-49 -4 -76 -7 -58 -8 17 -1 34 -8 36 -14 4 -10 6 -10 6 0 1 8 19 11 59 10 l57 -1 -55 -7 -55 -7 75 -1 c50 0 68 2 55 8 -17 7 -15 9 12 9 17 1 34 4 36 9 6 9 -50 9 -168 2z"/>
 <path d="M3020 547 c-38 -19 -38 -51 0 -67 57 -23 150 6 150 47 0 30 -102 44 -150 20z"/>
 </g>
<g id="layer104" fill="#82827c" stroke="none">
 <path d="M3285 3402 c-45 -28 -52 -41 -59 -107 -3 -33 -8 -85 -12 -116 l-6 -56 36 -21 c20 -12 36 -28 36 -37 0 -8 -2 -15 -5 -15 -12 0 -85 53 -85 62 0 6 -11 8 -24 4 -12 -3 -26 -2 -30 1 -4 4 -17 8 -29 8 -13 0 -21 6 -19 13 2 10 -2 10 -17 3 -10 -6 -21 -8 -24 -4 -4 3 -17 7 -29 9 -13 2 -40 7 -60 12 -31 8 -36 7 -31 -6 4 -10 2 -13 -5 -8 -7 4 -12 1 -13 -6 0 -7 -5 0 -11 15 -6 17 -16 27 -26 26 -10 -1 -24 0 -32 4 -8 3 -46 13 -85 22 -38 10 -99 26 -135 36 -36 10 -76 20 -90 23 -14 2 -67 18 -119 35 -52 17 -98 28 -102 25 -12 -7 -5 -77 9 -82 7 -2 9 -9 6 -14 -4 -6 -2 -8 4 -4 6 3 22 2 36 -4 19 -7 26 -6 26 3 0 7 -10 14 -22 14 -23 2 -51 30 -43 44 6 8 67 -11 77 -25 3 -5 4 -16 0 -24 -3 -10 -1 -13 6 -8 7 4 18 4 24 0 9 -6 7 -10 -8 -14 -17 -4 -9 -10 38 -32 32 -15 56 -23 53 -18 -4 6 -1 10 4 10 6 0 11 9 11 21 0 11 4 18 10 14 6 -4 6 -15 -1 -32 -11 -31 3 -46 38 -40 12 2 20 1 18 -3 -6 -9 50 -33 74 -33 9 0 21 -4 28 -9 24 -19 86 -47 94 -43 4 3 9 1 11 -3 5 -15 118 -61 133 -56 8 4 17 -1 21 -9 3 -8 21 -18 40 -21 19 -4 34 -11 34 -15 0 -13 80 -42 92 -35 7 4 8 2 4 -4 -4 -7 -4 -12 1 -12 4 0 14 -4 22 -9 10 -6 -14 -43 -100 -155 -62 -80 -118 -146 -124 -146 -7 0 -10 -10 -8 -24 3 -13 0 -33 -6 -45 -10 -18 -8 -25 13 -46 14 -14 34 -25 46 -25 11 0 20 -4 20 -9 0 -14 -42 0 -77 26 -18 13 -33 20 -33 15 0 -17 -50 0 -50 17 -1 25 -12 96 -15 100 -7 6 -125 -92 -125 -103 0 -18 -93 -206 -102 -206 -4 0 -8 4 -8 8 0 10 -1 10 -110 16 -79 3 -166 20 -182 35 -3 3 -9 32 -11 64 -3 32 -7 60 -9 62 -2 1 -61 41 -133 88 -144 94 -194 115 -275 115 -49 0 -52 -1 -25 -10 17 -5 41 -11 55 -14 14 -3 40 -14 58 -25 18 -10 43 -19 55 -19 15 0 23 -6 24 -19 2 -22 -11 -27 -91 -30 -32 -1 -67 -6 -78 -10 -35 -13 -76 -1 -81 23 -3 17 -5 15 -6 -6 0 -16 -4 -28 -8 -28 -5 0 -15 -13 -25 -29 -25 -44 -61 -65 -86 -50 -11 7 -18 19 -15 26 3 7 0 13 -6 13 -20 0 -13 -120 10 -170 29 -65 50 -84 183 -162 115 -69 118 -71 112 -100 -3 -17 -6 -36 -6 -44 0 -7 -24 -26 -54 -43 -67 -39 -75 -48 -84 -102 l-7 -42 -87 -25 c-57 -16 -85 -29 -81 -36 3 -6 3 -8 -2 -4 -4 4 -13 4 -19 -1 -18 -14 -48 -22 -41 -11 3 6 1 10 -4 10 -6 0 -11 -7 -11 -15 0 -8 -8 -15 -18 -15 -10 0 -26 -6 -37 -14 -11 -7 -50 -23 -87 -35 -38 -13 -68 -27 -68 -32 0 -6 -4 -7 -10 -4 -16 10 -11 -31 5 -45 20 -17 41 -12 296 63 l215 63 28 -28 c15 -15 33 -29 39 -29 14 -2 -8 -3 260 12 l218 11 117 -68 c217 -125 211 -120 266 -228 26 -54 53 -99 60 -101 6 -2 23 -6 37 -9 24 -5 28 -16 72 -194 39 -154 46 -194 37 -216 -13 -36 -13 -224 1 -263 9 -28 12 -30 34 -19 22 10 25 18 25 64 0 39 -5 58 -20 74 -21 22 -27 72 -11 82 5 4 12 -7 16 -24 4 -16 11 -30 16 -30 5 0 6 12 2 28 -3 15 -8 71 -10 126 -4 77 -2 97 8 94 7 -2 18 -27 24 -54 10 -45 13 -49 38 -47 23 1 27 -2 28 -25 0 -15 2 -34 4 -42 1 -8 10 -53 20 -98 l17 -84 -23 -24 c-15 -16 -20 -28 -13 -32 6 -4 16 -16 22 -27 10 -19 11 -19 21 8 15 40 14 205 -3 259 l-13 46 36 -1 c20 0 152 3 293 8 213 7 258 11 263 23 3 8 4 16 3 17 -2 2 -73 8 -158 14 -85 7 -200 18 -255 25 -111 15 -143 9 -125 -24 9 -16 7 -20 -5 -20 -9 0 -13 5 -10 10 13 21 -15 9 -32 -14 -17 -23 -19 -23 -53 -7 -35 16 -50 29 -50 44 0 14 38 7 64 -14 20 -16 26 -17 26 -6 0 20 -19 33 -57 42 -18 3 -34 14 -37 23 -11 35 -56 245 -56 259 0 24 25 41 52 36 14 -3 39 2 56 11 l31 16 337 -201 337 -201 74 16 c53 11 86 26 115 49 40 32 40 33 33 82 -11 82 -11 90 5 91 8 1 21 2 28 3 7 0 10 6 7 12 -4 6 -10 8 -13 5 -3 -3 -11 -1 -19 5 -10 9 -13 8 -13 0 0 -7 -5 -9 -11 -6 -6 4 -8 13 -5 21 3 8 1 14 -3 14 -17 0 -18 -25 -3 -42 31 -36 -11 -18 -107 46 -53 35 -178 117 -277 183 -140 93 -179 124 -172 134 7 11 11 11 15 2 2 -7 11 -13 19 -13 8 0 14 -5 14 -11 0 -6 6 -9 13 -6 16 6 49 -12 42 -22 -2 -5 13 -20 35 -35 43 -28 55 -32 44 -14 -4 7 -3 8 5 4 6 -4 9 -11 6 -16 -3 -5 0 -12 6 -16 6 -3 15 0 20 7 13 20 11 29 -6 29 -8 0 -15 4 -15 9 0 5 -21 22 -47 37 -27 15 -54 34 -61 41 -7 7 -20 13 -27 13 -9 0 -12 6 -9 15 9 22 20 19 72 -17 26 -18 49 -32 52 -32 3 1 10 -5 15 -11 8 -11 165 -120 395 -275 l45 -31 -48 43 c-26 24 -47 52 -47 63 0 28 -8 37 -65 75 -27 19 -107 74 -177 122 l-127 89 22 45 c21 44 23 46 57 40 19 -3 163 -19 320 -36 214 -23 295 -36 325 -51 22 -10 85 -35 139 -54 75 -27 102 -33 110 -24 8 9 8 10 0 6 -7 -4 -24 0 -40 8 -15 7 -31 12 -36 9 -4 -3 -8 0 -8 5 0 6 7 11 16 11 8 0 12 4 9 10 -9 14 57 0 76 -16 8 -8 22 -14 29 -14 11 0 11 -3 2 -12 -15 -15 -16 -38 -1 -38 6 0 9 7 5 15 -3 9 0 15 8 15 8 0 16 5 18 11 3 8 16 10 43 4 22 -4 33 -10 25 -13 -20 -6 -50 -33 -50 -44 0 -4 6 -8 14 -8 8 0 13 7 12 16 0 9 5 19 13 22 10 3 11 0 5 -9 -20 -33 -15 -48 16 -44 17 2 28 0 25 -4 -7 -13 81 -41 128 -41 24 0 49 -7 61 -18 20 -16 20 -16 6 2 -14 18 -14 19 5 9 15 -8 24 -6 38 9 9 10 13 18 7 18 -17 0 -25 -5 -22 -13 1 -4 -8 -2 -20 5 -13 7 -28 11 -35 10 -6 -1 -14 2 -17 7 -4 6 -18 6 -35 1 -32 -9 -53 4 -44 26 5 14 -14 37 -34 41 -7 2 -10 -6 -8 -17 2 -11 0 -20 -6 -20 -5 0 -9 4 -9 9 0 5 -8 11 -18 13 -14 4 -18 14 -17 41 1 32 -3 38 -30 48 -16 6 -46 18 -65 27 -19 8 -38 15 -42 14 -5 -1 -8 2 -8 8 0 6 -3 9 -7 9 -19 -3 -33 2 -33 12 0 5 5 7 10 4 20 -12 320 -16 320 -4 0 6 -7 8 -16 5 -11 -4 -14 -1 -12 12 3 16 11 19 70 21 20 1 26 5 22 16 -8 19 10 20 25 2 13 -17 5 -27 -21 -27 -16 0 -19 -5 -13 -29 3 -16 8 -47 10 -69 2 -21 14 -56 26 -76 l21 -36 62 6 c69 7 106 -5 106 -34 0 -14 -10 -18 -45 -20 -25 -1 -68 -11 -95 -23 -43 -18 -50 -26 -50 -49 0 -40 24 -55 86 -52 73 3 103 6 99 10 -2 2 4 12 13 22 19 23 46 8 37 -21 -5 -15 -1 -19 22 -21 46 -2 51 -3 59 -11 4 -4 13 -2 21 4 7 6 13 8 13 4 0 -4 12 1 28 10 15 10 21 12 15 4 -15 -15 -17 -33 -4 -24 5 3 12 1 16 -5 3 -5 15 -10 26 -10 11 0 18 -4 15 -9 -3 -5 5 -8 17 -8 15 0 23 6 24 18 1 11 -3 16 -12 12 -22 -8 -47 21 -32 37 9 9 8 11 -8 8 -12 -2 -24 4 -31 17 -6 11 -16 19 -23 17 -7 -1 -10 2 -7 7 7 11 -37 41 -61 41 -15 0 -16 2 -3 10 11 7 11 10 2 10 -21 0 -52 -20 -52 -33 0 -7 4 -6 10 3 6 10 10 11 10 2 0 -6 3 -11 8 -11 20 3 42 -2 42 -11 0 -5 -8 -6 -17 -3 -16 6 -16 5 -4 -10 7 -9 22 -17 32 -17 11 0 19 -4 19 -9 0 -10 -25 -21 -48 -21 -13 0 -14 2 -4 9 10 6 10 10 -3 21 -8 7 -15 9 -15 4 0 -5 -4 -4 -8 1 -4 6 -15 16 -25 24 -15 12 -17 12 -11 -4 5 -13 3 -16 -7 -13 -8 3 -13 12 -11 20 1 9 -5 21 -13 28 -10 8 -15 31 -15 71 0 85 -65 249 -124 312 -15 16 -28 36 -29 45 -4 25 -16 42 -30 42 -8 -1 -6 -5 3 -13 21 -16 19 -42 -2 -42 -9 0 -20 -3 -23 -7 -4 -4 -13 -4 -20 -2 -8 3 -34 -3 -59 -14 -64 -29 -77 -8 -26 44 22 24 36 30 58 26 22 -3 41 5 78 33 27 21 51 39 53 41 9 8 29 119 23 128 -11 19 -11 35 2 30 14 -5 52 148 41 166 -5 8 -4 11 2 7 6 -4 17 17 25 48 l15 55 -24 0 c-14 0 -21 -4 -18 -10 3 -5 1 -10 -5 -10 -6 0 -8 -4 -5 -10 3 -5 -1 -20 -10 -33 -8 -13 -13 -25 -11 -28 2 -2 -2 -10 -10 -17 -9 -8 -14 -9 -14 -2 0 6 -5 8 -11 5 -5 -4 -8 -12 -6 -18 2 -7 0 -20 -5 -30 -7 -14 -3 -19 18 -27 21 -8 24 -13 15 -24 -7 -8 -8 -16 -4 -18 4 -3 3 -3 -4 -2 -6 2 -13 -2 -16 -9 -2 -6 -6 -4 -10 6 -3 9 -2 17 3 17 15 0 12 17 -4 23 -11 4 -13 1 -9 -10 4 -11 2 -14 -5 -9 -8 5 -10 1 -5 -10 4 -12 3 -15 -5 -10 -7 4 -13 1 -14 -6 0 -7 -2 -18 -2 -24 -1 -6 -9 -22 -19 -37 -22 -34 -22 -34 12 -32 27 2 29 0 20 -22 -12 -32 -12 -33 5 -27 8 3 16 -4 19 -17 7 -25 -10 -52 -25 -43 -6 4 -5 10 3 15 11 7 10 9 -3 9 -10 0 -18 -5 -18 -11 0 -8 -5 -8 -15 1 -12 10 -15 10 -15 -3 0 -8 -9 -25 -21 -38 -11 -13 -18 -19 -15 -13 3 7 0 14 -8 17 -9 4 -12 0 -9 -11 3 -12 -10 -26 -42 -45 -25 -15 -43 -32 -40 -37 3 -6 2 -10 -3 -10 -10 0 -9 -26 3 -52 11 -27 -2 -48 -29 -48 -15 0 -25 -7 -29 -21 -5 -17 -11 -19 -39 -15 -18 4 -148 19 -288 36 -140 16 -371 43 -513 60 -142 16 -260 30 -262 30 -3 0 -5 13 -5 28 0 42 -18 57 -90 76 -155 40 -201 58 -189 73 17 20 8 23 -37 12 -69 -18 -169 17 -294 103 -58 39 -106 72 -108 74 -2 1 21 51 51 110 48 99 53 114 49 162 -2 28 -7 52 -11 52 -4 0 -15 -17 -26 -37 -10 -22 -20 -32 -22 -25 -6 17 38 80 176 254 103 130 109 136 114 109 10 -48 60 -76 138 -76 55 0 72 4 107 28 23 15 53 28 67 29 26 2 32 12 14 23 -6 4 -8 13 -5 20 3 8 0 16 -7 18 -9 3 -11 35 -9 111 3 133 -24 275 -64 344 -16 26 -28 54 -26 62 1 8 -1 10 -4 3 -4 -9 -14 -8 -40 3 -42 18 -46 1 -4 -21 41 -21 58 -51 75 -131 13 -64 13 -70 -5 -99 -14 -21 -20 -25 -20 -13 0 14 -4 16 -24 8 -13 -5 -27 -6 -30 -3 -3 4 -6 1 -6 -5 0 -6 4 -13 10 -17 13 -8 1 -35 -17 -35 -25 0 -5 -17 28 -24 35 -7 99 -65 99 -90 0 -15 -3 -15 -30 -1 -62 32 -165 12 -222 -42 -34 -32 -39 -11 -6 24 21 22 21 23 2 23 -11 0 -26 -6 -33 -12 -11 -10 -13 -10 -7 0 11 18 -5 14 -20 -5 -12 -16 -13 -16 -14 9 0 23 5 28 34 33 33 7 33 7 19 36 -10 21 -11 33 -3 48 15 29 20 115 9 153 -6 22 -6 34 1 36 7 3 7 9 -1 18 -7 8 -9 30 -6 53 5 38 -6 61 -27 61 -6 0 -5 -4 2 -8 9 -7 8 -13 -8 -27 -20 -18 -20 -18 -20 5 0 14 16 37 42 61 47 43 48 48 3 21z m-799 -170 c9 2 19 -3 21 -9 3 -7 0 -13 -7 -13 -6 0 -8 5 -4 12 4 7 3 8 -5 4 -9 -6 -9 -11 0 -22 6 -7 15 -11 20 -8 5 3 9 0 9 -5 0 -6 -11 -10 -24 -9 -14 1 -22 6 -20 10 3 4 -3 8 -12 8 -10 0 -14 3 -11 7 4 3 -3 18 -15 31 l-23 25 27 -17 c14 -10 34 -16 44 -14z m86 -54 c-6 -6 -15 -8 -19 -4 -4 4 -1 11 7 16 19 12 27 3 12 -12z m76 -6 c14 12 14 11 1 -9 -9 -16 -16 -19 -21 -10 -4 7 -7 17 -7 22 0 6 3 4 6 -3 4 -10 8 -10 21 0z m52 -32 c8 13 10 12 10 -2 0 -10 -4 -18 -9 -18 -22 0 -41 13 -41 29 1 13 3 13 16 -4 13 -17 16 -18 24 -5z m544 -125 c-16 -25 -44 -34 -44 -15 0 6 6 10 14 10 7 0 19 7 26 15 20 24 22 18 4 -10z m138 -187 c-9 -9 -15 -9 -24 0 -9 9 -7 12 12 12 19 0 21 -3 12 -12z m153 -68 c-3 -5 -13 -10 -21 -10 -8 0 -12 5 -9 10 3 6 13 10 21 10 8 0 12 -4 9 -10z m-1212 -615 c1 -78 -15 -119 -60 -155 -39 -31 -133 -24 -198 14 -25 15 -45 28 -45 29 0 2 15 1 34 -1 68 -8 176 79 226 182 22 47 24 48 33 25 5 -13 9 -55 10 -94z m678 -46 c55 -40 66 -49 54 -49 -14 1 -122 80 -109 80 6 0 31 -14 55 -31z m2069 -44 c6 -26 5 -32 -6 -28 -13 5 -15 11 -18 46 -1 6 -7 16 -14 20 -7 5 -10 12 -7 18 10 15 37 -19 45 -56z m-2000 -69 c0 -5 -10 -1 -22 7 -13 9 -42 29 -65 44 -24 15 -43 31 -43 36 0 10 130 -76 130 -87z m103 -6 c20 -14 37 -29 37 -33 0 -10 -116 68 -126 85 -8 12 2 6 89 -52z m-249 -26 c3 -8 2 -13 -3 -9 -5 3 -11 -1 -14 -7 -2 -7 -8 -10 -12 -6 -4 4 -1 14 6 22 17 19 16 19 23 0z m238 -29 c34 -25 59 -45 54 -45 -9 0 -126 79 -126 85 0 10 13 3 72 -40z m-271 -51 l24 -27 -27 18 c-16 9 -28 21 -28 26 0 14 5 11 31 -17z m2125 -271 c-6 -14 -3 -14 16 3 12 10 17 12 11 4 -6 -8 -11 -19 -10 -25 1 -5 -6 -11 -15 -13 -18 -3 -26 27 -11 41 11 12 15 8 9 -10z m-1562 -659 c25 -10 19 -21 -13 -26 -26 -4 -29 -2 -20 14 11 20 11 20 33 12z"/>
 <path d="M3386 3013 c-11 -11 -6 -23 9 -23 8 0 15 4 15 9 0 13 -16 22 -24 14z"/>
 <path d="M3636 2819 c3 -5 -1 -9 -8 -9 -7 0 -1 -12 15 -25 25 -23 36 -46 20 -44 -19 3 -34 -2 -29 -10 7 -11 64 -24 94 -22 12 2 22 -2 22 -8 0 -6 5 -11 11 -11 5 0 7 5 4 10 -3 6 -2 10 4 10 5 0 11 -5 13 -12 3 -7 14 -9 34 -3 19 6 24 9 12 12 -9 2 -18 10 -21 17 -4 9 4 11 25 8 20 -3 27 -9 24 -18 -3 -8 -1 -14 4 -14 6 0 10 7 10 15 0 22 23 18 50 -7 14 -13 26 -22 27 -20 9 7 33 0 28 -8 -3 -5 -1 -10 4 -10 6 0 11 6 11 13 0 9 2 9 8 0 8 -12 59 -25 109 -27 17 0 31 -3 31 -6 -2 -25 4 -32 23 -27 17 5 18 3 7 -10 -12 -14 -11 -15 9 -5 16 9 23 9 26 -1 4 -8 6 -8 6 0 1 6 10 9 20 6 11 -3 28 0 38 7 16 10 15 10 -6 4 -15 -4 -21 -2 -17 4 4 6 -2 8 -16 4 -14 -3 -19 -1 -14 6 5 8 -2 11 -21 8 -15 -2 -21 -1 -14 1 9 3 -1 11 -24 19 -25 8 -42 10 -46 3 -4 -6 -15 -6 -33 1 -17 6 -24 14 -20 22 4 7 3 8 -4 4 -15 -9 -63 4 -56 15 3 5 -3 6 -12 2 -12 -4 -15 -3 -10 5 7 12 -4 15 -49 14 -11 0 -25 8 -32 17 -10 13 -12 14 -13 1 0 -12 -3 -12 -11 2 -5 10 -16 15 -24 12 -8 -4 -15 -1 -15 5 0 6 -3 10 -7 9 -5 -1 -17 3 -29 9 -12 7 -26 8 -34 3 -9 -5 -18 -3 -24 6 -12 15 -109 37 -100 23z"/>
 <path d="M1722 2614 c-49 -43 -90 -100 -79 -110 2 -3 10 9 17 25 12 30 25 39 70 47 14 3 30 10 35 16 7 8 6 9 -4 3 -10 -6 -11 -2 -6 16 4 13 8 24 9 25 0 1 10 6 21 12 14 8 15 11 5 11 -8 0 -39 -20 -68 -45z"/>
 <path d="M3447 2630 c-3 -11 -1 -20 3 -20 5 0 11 -8 13 -17 3 -10 4 -3 4 15 -2 39 -12 51 -20 22z"/>
 <path d="M4320 2601 c0 -5 20 -14 44 -20 53 -13 65 -27 40 -46 -16 -12 -16 -13 -3 -11 10 1 24 8 33 15 21 18 5 33 -58 54 -58 20 -56 20 -56 8z"/>
 <path d="M3460 2546 c0 -13 -6 -17 -20 -13 -11 3 -20 1 -20 -4 0 -15 40 -10 47 6 3 9 3 19 -1 22 -3 4 -6 -2 -6 -11z"/>
 <path d="M2451 2497 c3 -4 34 -25 70 -47 35 -22 51 -30 35 -16 -27 22 -118 77 -105 63z"/>
 <path d="M1163 2195 c0 -22 2 -30 4 -17 2 12 2 30 0 40 -3 9 -5 -1 -4 -23z"/>
 <path d="M4030 2205 c-33 -19 -21 -19 21 0 19 8 27 14 19 14 -8 0 -26 -6 -40 -14z"/>
 <path d="M3925 2195 c-25 -12 -26 -14 -5 -9 28 7 60 23 45 23 -5 0 -23 -6 -40 -14z"/>
 <path d="M3815 2153 c-64 -27 -86 -40 -45 -28 35 11 127 53 115 53 -5 0 -37 -11 -70 -25z"/>
 <path d="M3585 2059 c-22 -10 -29 -16 -15 -13 28 7 80 33 65 33 -5 0 -28 -9 -50 -20z"/>
 <path d="M1173 1985 c0 -33 2 -45 4 -27 2 18 2 45 0 60 -2 15 -4 0 -4 -33z"/>
 <path d="M4966 2004 c-5 -13 -4 -14 7 -6 10 9 17 8 25 0 8 -8 12 -9 12 -1 0 6 -7 14 -16 17 -21 8 -21 8 -28 -10z"/>
 <path d="M1160 1874 c-18 -19 -21 -27 -12 -33 10 -6 8 -13 -6 -32 -34 -43 -51 -86 -72 -175 -20 -87 -20 -114 0 -114 5 0 8 14 6 32 -2 17 0 43 5 57 4 14 13 46 20 71 7 25 17 51 22 58 5 6 6 12 2 12 -8 0 34 72 48 81 5 4 4 10 -2 14 -9 5 -9 10 0 21 6 7 15 11 20 8 5 -3 6 2 3 10 -8 20 -6 21 -34 -10z"/>
 <path d="M1354 1838 c1 -24 -3 -32 -15 -30 -20 3 -16 -62 5 -83 24 -24 29 -18 23 30 -4 25 -2 47 3 50 14 8 12 28 -3 49 -12 16 -13 14 -13 -16z"/>
 <path d="M750 1746 c0 -2 14 -14 30 -26 17 -12 30 -19 30 -16 0 2 -13 14 -30 26 -16 12 -30 19 -30 16z"/>
 <path d="M1235 1598 c-11 -6 -23 -15 -26 -20 -3 -6 -9 -8 -13 -6 -4 1 -15 -10 -24 -27 -9 -16 -20 -31 -24 -33 -20 -9 -3 -22 50 -37 57 -17 94 -48 85 -72 -6 -14 -33 -18 -33 -5 0 10 -2 10 -90 18 -81 6 -115 -9 -115 -50 0 -45 41 -70 123 -74 79 -5 115 15 115 62 0 16 12 48 28 71 16 24 29 49 29 56 1 8 7 31 14 52 11 30 11 36 1 27 -10 -8 -22 -3 -48 20 -38 33 -43 34 -72 18z m-3 -80 c-10 -10 -15 -10 -22 2 -6 9 -5 17 3 22 18 11 33 -10 19 -24z"/>
 <path d="M4783 1539 c6 -10 22 -19 34 -19 13 0 23 -6 23 -13 0 -16 59 -72 67 -63 4 3 0 6 -7 6 -20 0 -2 13 23 17 16 2 18 0 8 -6 -9 -6 -10 -11 -2 -15 6 -4 11 -2 11 5 0 7 6 5 13 -5 11 -15 18 -17 33 -8 18 11 18 11 -2 12 -24 0 -49 25 -49 49 0 11 -7 15 -22 13 -17 -2 -23 2 -23 16 0 25 -23 34 -54 22 -13 -5 -27 -6 -30 -2 -4 3 -13 7 -21 8 -11 2 -12 -2 -2 -17z"/>
 <path d="M4678 1506 c-10 -7 -18 -19 -18 -25 0 -20 22 -7 31 17 10 26 10 26 -13 8z"/>
 <path d="M1333 1400 c0 -25 2 -35 4 -22 2 12 2 32 0 45 -2 12 -4 2 -4 -23z"/>
 <path d="M3680 1409 c0 -15 5 -19 15 -15 8 3 14 2 12 -2 -1 -4 2 -8 7 -9 5 0 13 -8 18 -17 5 -9 14 -16 19 -16 6 0 7 5 3 12 -4 7 -3 8 5 4 6 -4 9 -11 6 -16 -3 -5 7 -17 22 -26 15 -10 61 -39 102 -66 87 -57 92 -59 96 -35 3 13 0 15 -9 8 -7 -6 -17 -6 -26 -1 -10 7 -11 10 -2 10 6 0 12 5 12 11 0 5 -4 8 -9 4 -6 -3 -13 1 -18 8 -10 17 -158 117 -173 117 -5 0 -10 5 -10 11 0 6 -7 8 -17 5 -10 -4 -14 -4 -10 0 9 9 -12 34 -29 34 -8 0 -14 -9 -14 -21z m240 -150 c17 -13 18 -17 5 -10 -33 17 -51 31 -40 31 6 0 21 -10 35 -21z"/>
 <path d="M4748 1361 c-9 -13 -23 -18 -42 -16 -19 2 -25 0 -18 -7 15 -15 53 -5 70 20 18 27 9 30 -10 3z"/>
 <path d="M5195 1309 c-4 -6 -5 -13 -2 -16 7 -7 27 6 27 18 0 12 -17 12 -25 -2z"/>
 <path d="M5460 1283 c0 -9 3 -13 6 -10 4 3 16 2 26 -4 16 -8 19 -8 16 2 -2 6 -14 16 -26 20 -17 7 -22 5 -22 -8z"/>
 <path d="M5506 1242 c-2 -4 -1 -14 3 -21 6 -9 10 -7 14 8 5 20 -7 29 -17 13z"/>
 <path d="M5556 1228 c5 -8 2 -9 -10 -5 -9 4 -15 3 -11 -2 3 -6 13 -9 23 -9 9 0 33 -7 53 -15 34 -15 49 -14 49 4 0 3 -20 10 -45 13 -25 4 -45 11 -45 17 0 5 -5 9 -11 9 -5 0 -7 -5 -3 -12z"/>
 <path d="M2765 940 c-49 -4 -76 -7 -58 -8 17 -1 34 -8 36 -14 4 -10 6 -10 6 0 1 8 19 11 59 10 l57 -1 -55 -7 -55 -7 75 -1 c50 0 68 2 55 8 -17 7 -15 9 12 9 17 1 34 4 36 9 6 9 -50 9 -168 2z"/>
 <path d="M3020 547 c-38 -19 -38 -51 0 -67 57 -23 150 6 150 47 0 30 -102 44 -150 20z"/>
 </g>
<g id="layer105" fill="#a2a19d" stroke="none">
 <path d="M3250 3375 c-13 -14 -21 -27 -18 -30 2 -3 14 9 27 25 26 37 23 39 -9 5z"/>
 <path d="M2310 3311 c0 -12 9 -21 25 -25 13 -3 23 -12 21 -19 -1 -6 -1 -9 1 -4 9 14 55 7 84 -14 16 -11 35 -19 42 -16 6 2 23 -4 36 -14 13 -11 32 -19 42 -19 21 0 25 -15 8 -26 -6 -3 -15 0 -20 7 -6 10 -9 8 -9 -8 0 -13 6 -23 13 -23 6 0 26 -7 42 -16 44 -24 84 -34 90 -23 4 5 -1 12 -9 15 -9 3 -16 14 -16 23 1 13 3 13 16 -4 13 -17 16 -18 24 -5 8 13 10 13 10 -2 0 -9 -4 -20 -10 -23 -16 -10 -12 -25 8 -31 21 -7 159 -63 189 -77 12 -5 20 -15 16 -20 -4 -6 -1 -7 6 -2 7 4 29 -1 48 -11 27 -14 37 -16 40 -6 3 6 9 12 15 12 6 0 8 -7 5 -14 -4 -9 2 -17 14 -21 10 -4 17 -10 14 -15 -6 -9 25 -23 33 -15 3 3 -1 5 -8 5 -10 0 -11 3 -3 11 14 14 72 -21 65 -40 -2 -8 -1 -11 4 -8 5 3 20 -1 34 -9 21 -13 22 -14 3 -9 -18 5 -34 -11 -105 -102 -110 -142 -155 -213 -163 -256 -6 -32 -4 -37 24 -51 16 -9 36 -16 44 -16 8 0 36 28 63 63 227 291 241 307 247 277 10 -47 60 -75 139 -75 59 0 72 4 112 33 26 17 53 32 61 32 8 0 15 4 15 10 0 5 -5 9 -12 7 -9 -1 -12 29 -10 123 2 130 -17 266 -44 324 -8 17 -12 22 -8 11 23 -80 31 -185 14 -185 -5 0 -10 -12 -10 -26 0 -24 -3 -26 -32 -20 l-33 6 31 -28 c31 -27 54 -61 54 -81 0 -6 -17 -4 -42 5 -72 26 -191 -5 -218 -56 -10 -20 -12 -19 -45 16 -19 20 -35 41 -35 45 0 12 35 29 60 29 19 0 20 1 5 24 -19 28 -55 41 -55 19 0 -8 -4 -12 -9 -9 -7 5 -97 16 -148 19 -7 0 -13 4 -13 8 0 10 -43 -2 -51 -14 -8 -12 -29 0 -29 16 0 7 4 6 10 -3 8 -12 10 -10 10 9 0 17 -4 22 -16 17 -13 -5 -14 -4 -6 7 7 8 8 18 4 22 -4 5 -2 5 5 2 16 -10 44 20 37 38 -4 8 -14 15 -23 16 -9 1 -29 2 -46 3 -16 0 -35 8 -42 16 -9 11 -12 12 -13 2 0 -8 -8 -5 -22 8 -26 24 -62 35 -79 24 -7 -4 -9 -3 -6 3 4 7 -13 16 -46 23 -28 7 -74 18 -102 26 -27 8 -108 30 -180 50 -71 20 -134 40 -139 45 -16 14 -26 11 -26 -10z m300 -135 c0 -8 -4 -18 -10 -21 -5 -3 -10 3 -10 14 0 12 5 21 10 21 6 0 10 -6 10 -14z m30 -8 c0 6 5 12 10 12 6 0 5 -8 -2 -19 -14 -22 -28 -18 -28 7 0 15 2 15 10 2 6 -10 10 -11 10 -2z m136 -66 c-14 -14 -17 -14 -14 -2 3 17 20 31 27 24 3 -2 -3 -12 -13 -22z m170 -71 c2 -8 1 -8 -3 0 -4 8 -7 8 -13 -1 -5 -9 -9 -8 -13 3 -4 10 0 14 11 13 9 -2 17 -8 18 -15z m444 -202 c0 -11 -27 -12 -34 0 -3 4 -3 11 0 14 8 8 34 -3 34 -14z m145 -69 c-3 -5 -13 -10 -21 -10 -8 0 -12 5 -9 10 3 6 13 10 21 10 8 0 12 -4 9 -10z"/>
 <path d="M3237 3283 c-11 -18 -29 -120 -26 -143 3 -15 12 -26 24 -29 17 -3 17 -1 6 12 -7 9 -9 22 -5 28 8 14 17 139 9 139 -2 0 -6 -3 -8 -7z"/>
 <path d="M1697 2589 c-25 -24 -30 -32 -13 -20 16 12 36 21 44 21 8 0 12 3 9 7 -4 3 -2 12 4 20 24 29 -4 11 -44 -28z"/>
 <path d="M3460 2547 c0 -8 -8 -18 -17 -20 -17 -4 -17 -5 0 -6 18 -1 35 25 23 36 -3 4 -6 -1 -6 -10z"/>
 <path d="M2038 2515 c-3 -3 -67 -6 -142 -6 -122 -2 -138 -4 -147 -20 -5 -10 -13 -18 -17 -17 -13 3 -72 -39 -65 -46 4 -4 0 -4 -10 0 -9 3 -21 20 -26 38 -8 27 -9 22 -10 -34 -1 -70 22 -136 62 -178 12 -13 75 -55 139 -93 l118 -70 -7 -58 -6 -59 42 -30 c30 -22 38 -32 28 -40 -28 -22 -201 -103 -250 -116 -28 -8 -72 -21 -97 -30 -25 -8 -78 -24 -117 -36 -40 -12 -75 -25 -78 -30 -3 -5 -37 -19 -75 -31 -39 -12 -70 -25 -70 -28 0 -4 6 -15 14 -26 17 -24 27 -22 297 58 l215 63 28 -28 c15 -15 33 -29 39 -29 14 -2 -8 -3 260 12 l218 11 117 -68 c217 -125 211 -120 266 -228 26 -54 53 -99 60 -101 6 -2 22 -6 36 -9 24 -5 29 -17 73 -193 45 -179 50 -213 34 -229 -11 -11 -8 -56 3 -49 6 3 10 16 10 28 0 16 3 18 9 9 13 -22 22 13 28 111 3 48 9 87 13 87 3 0 11 -17 16 -37 7 -28 15 -38 38 -44 15 -4 37 -16 47 -25 16 -15 19 -15 19 -2 0 21 -18 34 -57 43 -18 3 -34 14 -37 23 -11 35 -56 245 -56 259 0 24 25 41 52 36 14 -3 39 2 56 11 l31 16 337 -201 337 -201 74 16 c53 11 86 26 115 49 39 31 40 33 33 81 -8 62 -19 83 -47 92 -13 4 -25 10 -28 14 -3 4 -120 84 -262 177 -242 159 -255 170 -245 190 12 21 14 20 113 -45 174 -116 184 -122 184 -118 0 4 -102 75 -222 155 -21 13 -35 28 -32 33 17 27 60 1 437 -260 44 -30 74 -46 68 -36 -5 11 -12 30 -15 44 -3 14 -22 35 -43 49 -21 13 -102 68 -180 123 l-142 99 22 45 c21 45 22 45 62 40 142 -21 645 -74 670 -70 17 2 21 1 10 -2 -42 -12 -34 -22 37 -46 59 -20 77 -22 95 -13 13 7 20 15 15 20 -13 14 61 -5 78 -20 9 -8 22 -15 29 -15 7 0 9 -4 6 -10 -3 -5 1 -10 9 -10 9 0 16 6 16 14 0 12 7 13 32 5 44 -12 45 -12 51 10 4 16 -2 21 -27 27 -42 9 -159 68 -177 90 -13 16 -11 17 26 10 45 -7 268 -18 245 -11 -8 2 -150 20 -315 39 -165 20 -416 49 -558 66 -142 16 -260 30 -262 30 -3 0 -5 13 -5 28 0 16 -6 35 -12 43 -7 9 -76 33 -153 53 -77 21 -144 43 -150 48 -7 6 -5 9 5 8 27 -4 41 0 36 9 -4 6 -21 5 -42 -1 -66 -18 -162 15 -289 100 -60 41 -111 75 -113 77 -2 2 19 47 46 102 67 132 67 133 12 148 -25 7 -76 22 -115 34 -38 12 -76 19 -82 16 -7 -2 -13 1 -13 7 0 6 -6 5 -17 -3 -9 -8 -14 -9 -10 -2 5 7 0 9 -14 6 -21 -6 -21 -6 2 -18 l23 -13 -34 -20 c-19 -11 -44 -29 -55 -39 -11 -11 -41 -35 -66 -55 l-46 -37 -84 5 c-110 7 -228 41 -235 69 -3 11 -16 29 -30 40 -14 11 -34 28 -45 38 -10 9 -21 17 -24 17 -8 -1 -70 32 -75 40 -5 7 -45 30 -53 30 -2 0 -6 -2 -9 -5z m287 -343 c9 -67 -9 -128 -50 -169 -29 -29 -39 -33 -86 -33 -57 0 -132 30 -179 71 l-25 21 27 -16 c15 -9 39 -16 53 -16 33 0 93 31 124 63 13 14 28 24 35 23 6 -2 8 -1 5 1 -4 2 8 29 27 60 18 31 37 66 40 77 7 20 8 19 15 -6 4 -15 10 -49 14 -76z m685 -78 c49 -35 72 -69 27 -39 -13 8 -27 12 -32 8 -4 -5 -5 -3 -2 4 4 7 -7 20 -28 33 -19 12 -35 24 -35 26 0 12 25 0 70 -32z m23 -74 c20 -14 37 -29 37 -34 0 -4 -12 0 -27 10 -88 56 -103 68 -103 76 0 6 12 2 28 -9 15 -10 44 -29 65 -43z m140 -38 c20 -14 37 -29 37 -34 0 -6 -12 -2 -27 7 -65 42 -103 71 -103 79 0 8 8 3 93 -52z m-249 -44 c-6 -9 -34 -11 -34 -3 0 3 6 12 13 19 12 14 31 0 21 -16z m236 -10 c33 -23 60 -46 60 -51 0 -8 -117 70 -126 85 -10 17 9 7 66 -34z m159 12 c10 -5 10 -9 2 -14 -6 -4 -11 -2 -11 3 0 6 -12 11 -26 11 -30 0 -28 -23 2 -28 28 -6 38 -18 19 -26 -9 -3 -13 -2 -10 3 3 5 -7 11 -22 13 -22 2 -27 8 -29 31 -1 26 1 28 30 21 17 -3 37 -10 45 -14z m-411 -77 c7 -7 18 -13 24 -13 6 0 9 -2 6 -5 -9 -10 -77 29 -78 44 0 14 13 7 48 -26z m130 -68 c31 -35 15 -31 -20 5 -15 17 -33 30 -38 30 -6 0 -10 5 -10 10 0 14 40 -13 68 -45z m197 -397 c-19 -11 -30 -5 -21 11 4 6 14 7 22 4 15 -5 14 -7 -1 -15z"/>
 <path d="M1360 1826 c0 -8 -3 -23 -6 -33 -6 -16 -5 -16 9 2 19 23 22 45 7 45 -5 0 -10 -6 -10 -14z"/>
 <path d="M5034 1765 c21 -19 41 -35 45 -35 3 0 13 -17 22 -38 10 -20 24 -53 32 -72 12 -25 13 -36 4 -42 -6 -4 -15 -4 -19 -2 -13 8 -121 -15 -129 -28 -4 -6 1 -28 11 -49 l19 -37 65 5 c70 6 96 -4 96 -37 0 -13 -9 -17 -37 -18 -21 -1 -64 -12 -95 -24 -50 -20 -58 -26 -58 -49 0 -38 24 -53 84 -53 60 0 101 18 129 56 19 26 20 29 4 46 -12 13 -17 36 -17 74 0 35 -9 80 -25 122 -53 141 -104 216 -146 216 -21 0 -19 -3 15 -35z"/>
 <path d="M4910 1783 c-8 -3 -23 -12 -32 -21 -15 -13 -20 -13 -35 -1 -16 12 -17 12 -6 -2 7 -9 11 -35 9 -62 -2 -26 -1 -47 3 -47 13 0 51 46 44 53 -3 4 -2 7 4 7 6 0 15 18 21 40 5 22 9 40 8 39 0 0 -8 -3 -16 -6z"/>
 <path d="M1292 1562 c-7 -2 -10 -8 -6 -13 3 -5 -7 -9 -22 -9 -15 0 -24 -3 -21 -7 14 -13 -16 -33 -50 -33 -45 0 -35 -14 21 -30 51 -14 85 -52 66 -75 -9 -11 -15 -11 -38 0 -41 21 -122 27 -162 12 -29 -10 -35 -17 -35 -41 0 -42 41 -69 113 -74 77 -6 125 17 121 56 -2 16 8 43 25 69 15 22 33 61 41 85 13 44 13 44 -14 54 -14 6 -32 9 -39 6z"/>
 <path d="M4850 1515 c-11 -13 -9 -19 10 -35 13 -11 28 -20 34 -20 6 0 4 5 -4 10 -11 7 -6 8 17 4 29 -6 31 -4 26 15 -3 12 -13 21 -24 21 -10 0 -21 5 -24 10 -9 14 -21 12 -35 -5z"/>
 <path d="M4702 1488 c-16 -16 -15 -28 1 -28 7 0 13 9 13 20 0 11 -1 20 -1 20 -1 0 -6 -5 -13 -12z"/>
 <path d="M4880 1410 c-34 -7 -33 -7 14 -9 30 0 57 -7 67 -17 17 -16 18 -15 6 10 -13 27 -24 29 -87 16z"/>
 <path d="M4744 1349 c-3 -6 -19 -9 -35 -7 -15 3 -26 1 -23 -4 9 -13 51 -9 64 7 7 8 10 15 7 15 -3 0 -9 -5 -13 -11z"/>
 <path d="M5360 1302 c0 -7 -22 -9 -67 -6 -54 4 -64 2 -50 -6 38 -24 149 -9 124 17 -4 3 -7 1 -7 -5z"/>
 <path d="M3220 980 c-13 -9 -13 -11 0 -20 10 -6 11 -10 3 -10 -7 0 -10 -7 -6 -16 4 -12 0 -14 -23 -9 -16 3 -23 2 -16 -1 6 -3 12 -10 12 -15 0 -14 -44 -11 -79 7 -33 16 -48 14 -36 -6 4 -6 15 -8 25 -5 16 5 20 -1 25 -32 3 -21 13 -79 22 -130 16 -92 16 -93 -5 -110 l-21 -18 20 -24 c11 -13 23 -21 27 -17 15 15 14 214 -1 266 l-15 51 33 -7 c28 -5 34 -2 40 15 3 12 11 22 16 22 5 1 15 2 22 3 6 1 11 7 10 14 -2 7 2 12 8 12 6 0 9 -9 6 -20 -6 -24 10 -26 60 -5 20 8 39 13 42 9 9 -9 -30 -28 -74 -36 -22 -4 5 -5 60 -2 55 2 160 4 234 4 116 0 132 2 127 16 -3 8 -2 12 4 9 6 -3 10 -2 10 3 0 6 -48 13 -107 17 -106 6 -349 31 -388 40 -11 2 -27 0 -35 -5z m240 -40 c18 -11 12 -17 -24 -22 -48 -5 -45 21 4 31 3 0 12 -3 20 -9z m100 -20 c-8 -5 -22 -10 -30 -10 -13 0 -13 1 0 10 8 5 22 10 30 10 13 0 13 -1 0 -10z"/>
 <path d="M2960 775 c0 -14 3 -25 8 -25 4 0 7 11 7 25 0 14 -3 25 -7 25 -5 0 -8 -11 -8 -25z"/>
 <path d="M2985 677 c-23 -36 -13 -80 18 -75 27 4 34 37 14 74 l-14 27 -18 -26z"/>
 <path d="M3031 552 c-36 -11 -50 -38 -29 -58 21 -21 96 -28 127 -12 33 18 49 44 35 58 -13 13 -102 21 -133 12z"/>
 </g>
<g id="layer106" fill="#bdc0cc" stroke="none">
 <path d="M3589 3008 c-1 -13 -1 -26 0 -30 2 -13 -24 -9 -38 5 -11 10 -11 8 -1 -13 7 -13 16 -39 20 -56 l7 -32 -31 19 c-65 40 -198 12 -233 -50 -17 -29 -17 -29 -28 -7 -8 15 -19 20 -41 19 -53 -4 -69 -12 -98 -54 -16 -23 -51 -69 -77 -103 -26 -34 -61 -78 -76 -99 -15 -21 -35 -46 -44 -55 -9 -9 -20 -31 -23 -49 -6 -27 -3 -34 18 -48 34 -22 54 -13 98 43 192 245 248 312 248 294 0 -11 13 -34 29 -50 47 -47 127 -55 197 -22 67 33 76 56 80 192 2 65 1 118 -1 118 -3 0 -6 -10 -6 -22z m-199 -175 c0 -7 -9 -13 -20 -13 -19 0 -26 11 -15 22 10 10 35 4 35 -9z m150 -73 c0 -5 -9 -10 -21 -10 -11 0 -17 5 -14 10 3 6 13 10 21 10 8 0 14 -4 14 -10z"/>
 <path d="M3165 2925 c11 -8 25 -18 30 -23 6 -4 18 -11 28 -15 14 -5 18 -3 15 11 -2 9 -13 18 -26 20 -12 2 -22 8 -22 13 0 5 -10 9 -22 9 -23 -1 -23 -1 -3 -15z"/>
 <path d="M1730 2454 c0 -6 -14 -17 -30 -24 -64 -27 -75 -108 -24 -170 14 -16 79 -61 144 -100 l119 -71 -2 -61 c-2 -54 1 -62 22 -77 72 -47 76 -41 -70 -114 -74 -37 -154 -73 -179 -81 -25 -8 -92 -29 -150 -47 -64 -20 -113 -41 -128 -56 -13 -13 -38 -27 -55 -30 l-32 -7 28 -7 c15 -4 42 -3 60 2 18 6 41 12 53 14 11 3 94 26 185 53 l165 48 29 -29 29 -30 146 7 c80 3 190 9 245 12 l100 6 160 -95 160 -94 56 -104 c50 -92 60 -104 88 -110 18 -4 33 -8 35 -10 2 -2 23 -78 46 -169 23 -91 47 -182 53 -203 13 -51 24 -32 32 57 3 39 11 80 16 91 7 15 4 48 -14 122 -22 95 -23 102 -7 116 10 8 29 13 42 10 14 -3 39 2 56 11 l31 16 337 -201 337 -201 74 16 c53 11 86 26 115 49 39 31 40 33 33 81 -6 47 -24 97 -25 69 0 -16 -36 -17 -45 -2 -4 6 -14 8 -23 4 -10 -4 -23 3 -35 17 -10 13 -16 17 -12 11 14 -27 -6 -11 -25 20 -11 17 -20 25 -20 17 -1 -11 -4 -10 -15 4 -8 11 -18 17 -21 13 -3 -3 -16 5 -29 19 -12 13 -27 24 -34 24 -6 0 -11 5 -11 10 0 6 -9 10 -21 10 -11 0 -18 4 -15 9 3 5 -15 21 -41 36 -27 15 -60 38 -74 52 -14 13 -36 26 -49 28 -13 3 -28 12 -33 20 -4 8 -12 13 -17 10 -4 -3 -10 2 -14 10 -3 8 -11 15 -18 15 -9 0 -8 -3 2 -10 12 -8 10 -10 -11 -10 -14 0 -28 3 -32 6 -5 5 34 95 47 111 1 2 35 7 75 13 56 8 77 7 90 -2 13 -10 14 -10 4 1 -9 11 -7 23 10 58 21 44 22 44 62 39 201 -29 651 -74 661 -65 8 6 69 -7 190 -41 98 -27 182 -50 185 -50 4 0 9 9 12 19 4 16 -2 21 -31 26 -19 4 -79 28 -131 55 -95 48 -97 49 -276 69 -99 12 -236 28 -305 36 -247 30 -312 36 -324 32 -6 -3 -31 -1 -56 3 -341 58 -379 66 -394 84 -6 7 -82 59 -168 116 l-156 103 74 149 c75 150 84 175 62 175 -7 0 -57 14 -110 31 -53 18 -101 32 -105 32 -5 0 -60 -40 -123 -89 l-114 -88 -90 5 c-50 2 -115 13 -145 23 -29 10 -57 16 -62 14 -4 -3 -1 -25 8 -48 22 -61 22 -183 0 -227 -22 -45 -69 -73 -122 -73 -44 0 -135 37 -175 72 l-25 21 37 -16 c32 -15 43 -16 79 -5 54 16 142 103 174 173 35 75 28 83 -140 166 -33 16 -63 29 -66 28 -3 0 -13 5 -22 13 -10 7 -17 10 -17 6 0 -4 -6 -3 -12 2 -17 13 -78 16 -78 4 0 -5 -17 -1 -37 9 -21 10 -40 15 -43 11 -5 -6 -19 -7 -37 -1 -23 6 -59 4 -65 -5 -5 -6 -12 -4 -18 5 -5 8 -10 10 -10 4z m1196 -513 c-10 -16 -36 -13 -36 3 0 17 21 27 34 16 4 -5 5 -13 2 -19z m80 -56 c2 -12 -2 -13 -17 -4 -11 5 -17 14 -14 20 4 5 -1 9 -10 9 -9 0 -13 5 -10 10 8 13 48 -14 51 -35z m-109 -5 c3 0 -1 8 -8 17 -11 13 -8 13 16 -3 117 -74 155 -106 155 -127 0 -19 -1 -19 -20 3 -11 13 -20 17 -20 10 0 -9 -6 -8 -20 5 -11 10 -17 22 -13 27 3 6 -1 14 -8 19 -24 15 -30 10 -19 -13 10 -20 9 -21 -2 -6 -8 9 -33 26 -56 38 -28 15 -42 29 -42 42 0 18 1 18 16 4 8 -9 18 -16 21 -16z m143 -8 c0 -5 16 -16 36 -25 19 -10 32 -21 29 -27 -3 -5 -15 0 -25 10 -11 11 -26 20 -34 20 -8 0 -16 7 -20 15 -3 8 -1 15 4 15 6 0 10 -4 10 -8z m195 -474 c-19 -11 -30 -5 -21 11 4 6 14 7 22 4 15 -5 14 -7 -1 -15z"/>
 <path d="M2910 1870 c0 -5 9 -14 20 -20 11 -6 20 -7 20 -3 0 5 -9 14 -20 21 -11 7 -20 8 -20 2z"/>
 <path d="M3236 1981 c8 -8 133 -41 151 -41 4 0 0 5 -10 11 -9 6 -15 14 -12 19 4 6 -3 6 -17 1 -15 -5 -39 -3 -68 5 -53 16 -57 17 -44 5z"/>
 <path d="M4848 1727 c-3 -13 -1 -32 3 -43 5 -13 8 -7 8 24 1 46 -4 55 -11 19z"/>
 <path d="M5171 1553 c-1 -9 -13 -11 -36 -8 -20 2 -35 0 -35 -6 0 -6 -3 -8 -8 -5 -17 10 -75 -10 -78 -27 -3 -23 30 -40 64 -33 32 7 92 -8 104 -26 11 -17 9 71 -2 97 -5 11 -9 14 -9 8z"/>
 <path d="M4850 1511 c-8 -17 -6 -20 21 -26 38 -9 42 -4 23 23 -19 27 -30 28 -44 3z"/>
 <path d="M3802 1455 c15 -16 30 -26 33 -23 4 3 -9 16 -27 28 l-33 23 27 -28z"/>
 <path d="M3850 1419 c0 -6 9 -13 20 -16 11 -3 17 -9 14 -14 -3 -5 10 -16 28 -24 18 -8 30 -14 26 -15 -4 0 -1 -8 7 -17 7 -10 23 -29 34 -43 l20 -25 -9 38 c-4 21 -10 40 -12 41 -41 33 -128 84 -128 75z"/>
 <path d="M1073 1400 c-26 -11 -39 -46 -23 -65 6 -7 26 -20 44 -29 38 -18 101 -22 91 -6 -3 6 3 10 15 10 13 0 18 -4 14 -11 -3 -6 7 -4 24 5 42 21 47 43 17 70 -37 34 -129 47 -182 26z m57 -30 c0 -5 -6 -10 -14 -10 -8 0 -18 5 -21 10 -3 6 3 10 14 10 12 0 21 -4 21 -10z"/>
 <path d="M5078 1400 c-102 -31 -120 -95 -31 -114 36 -8 116 10 108 24 -3 6 0 7 8 4 19 -7 58 42 50 62 -11 30 -77 42 -135 24z"/>
 <path d="M3075 980 c-3 -6 0 -10 8 -10 8 0 27 -10 42 -22 25 -19 27 -19 24 -3 -5 22 -65 50 -74 35z"/>
 <path d="M3633 903 c20 -2 54 -2 75 0 20 2 3 4 -38 4 -41 0 -58 -2 -37 -4z"/>
 <path d="M3358 893 c12 -2 30 -2 40 0 9 3 -1 5 -23 4 -22 0 -30 -2 -17 -4z"/>
 <path d="M3137 812 c3 -20 12 -64 20 -97 l15 -60 -26 -20 -26 -21 21 -18 c12 -9 24 -15 27 -12 9 10 15 171 8 218 -5 33 -11 44 -26 45 -16 1 -18 -4 -13 -35z"/>
 <path d="M3006 624 c-8 -20 0 -32 14 -18 5 5 5 15 1 22 -6 11 -10 10 -15 -4z"/>
 <path d="M3032 549 c-71 -21 -45 -72 36 -72 53 -1 106 25 99 46 -10 32 -73 44 -135 26z"/>
 </g>
<g id="layer107" fill="#d2d1cc" stroke="none">
 <path d="M3589 3008 c-1 -13 -1 -26 0 -30 2 -13 -24 -9 -38 5 -11 10 -11 8 -1 -13 7 -13 16 -39 20 -56 l7 -32 -31 19 c-65 40 -198 12 -233 -50 -17 -29 -17 -29 -28 -7 -8 15 -19 20 -41 19 -53 -4 -69 -12 -98 -54 -16 -23 -51 -69 -77 -103 -26 -34 -61 -78 -76 -99 -15 -21 -35 -46 -44 -55 -9 -9 -20 -31 -23 -49 -6 -27 -3 -34 18 -48 34 -22 54 -13 98 43 192 245 248 312 248 294 0 -11 13 -34 29 -50 47 -47 127 -55 197 -22 67 33 76 56 80 192 2 65 1 118 -1 118 -3 0 -6 -10 -6 -22z m-199 -175 c0 -7 -9 -13 -20 -13 -19 0 -26 11 -15 22 10 10 35 4 35 -9z m150 -73 c0 -5 -9 -10 -21 -10 -11 0 -17 5 -14 10 3 6 13 10 21 10 8 0 14 -4 14 -10z"/>
 <path d="M3165 2925 c11 -8 25 -18 30 -23 6 -4 18 -11 28 -15 14 -5 18 -3 15 11 -2 9 -13 18 -26 20 -12 2 -22 8 -22 13 0 5 -10 9 -22 9 -23 -1 -23 -1 -3 -15z"/>
 <path d="M1730 2454 c0 -6 -14 -17 -30 -24 -64 -27 -75 -108 -24 -170 14 -16 79 -61 144 -100 l119 -71 -2 -61 c-2 -54 1 -62 22 -77 72 -47 76 -41 -70 -114 -74 -37 -154 -73 -179 -81 -25 -8 -92 -29 -150 -47 -64 -20 -113 -41 -128 -56 -13 -13 -38 -27 -55 -30 l-32 -7 28 -7 c15 -4 42 -3 60 2 18 6 41 12 53 14 11 3 94 26 185 53 l165 48 29 -29 29 -30 146 7 c80 3 190 9 245 12 l100 6 160 -95 160 -94 56 -104 c50 -92 60 -104 88 -110 18 -4 33 -8 35 -10 2 -2 23 -78 46 -169 23 -91 47 -182 53 -203 13 -51 24 -32 32 57 3 39 11 80 16 91 7 15 4 48 -14 122 -22 95 -23 102 -7 116 10 8 29 13 42 10 14 -3 39 2 56 11 l31 16 337 -201 337 -201 74 16 c53 11 86 26 115 49 39 31 40 33 33 81 -6 47 -24 97 -25 69 0 -16 -36 -17 -45 -2 -4 6 -14 8 -23 4 -10 -4 -23 3 -35 17 -10 13 -16 17 -12 11 14 -27 -6 -11 -25 20 -11 17 -20 25 -20 17 -1 -11 -4 -10 -15 4 -8 11 -18 17 -21 13 -3 -3 -16 5 -29 19 -12 13 -27 24 -34 24 -6 0 -11 5 -11 10 0 6 -9 10 -21 10 -11 0 -18 4 -15 9 3 5 -15 21 -41 36 -27 15 -60 38 -74 52 -14 13 -36 26 -49 28 -13 3 -28 12 -33 20 -4 8 -12 13 -17 10 -4 -3 -10 2 -14 10 -3 8 -11 15 -18 15 -9 0 -8 -3 2 -10 12 -8 10 -10 -11 -10 -14 0 -28 3 -32 6 -5 5 34 95 47 111 1 2 35 7 75 13 56 8 77 7 90 -2 13 -10 14 -10 4 1 -9 11 -7 23 10 58 21 44 22 44 62 39 200 -29 651 -74 661 -65 12 10 18 9 244 -55 69 -20 128 -36 131 -36 4 0 9 9 12 19 4 16 -2 21 -31 26 -19 4 -79 28 -131 55 -95 48 -97 49 -276 69 -99 12 -236 28 -305 36 -247 30 -312 36 -324 32 -6 -3 -31 -1 -56 3 -341 58 -379 66 -394 84 -6 7 -82 59 -168 116 l-156 103 74 149 c75 150 84 175 62 175 -7 0 -57 14 -110 31 -53 18 -101 32 -105 32 -5 0 -60 -40 -123 -89 l-114 -88 -90 5 c-50 2 -115 13 -145 23 -29 10 -57 16 -62 14 -4 -3 -1 -25 8 -48 22 -61 22 -183 0 -227 -22 -45 -69 -73 -122 -73 -44 0 -135 37 -175 72 l-25 21 37 -16 c32 -15 43 -16 79 -5 54 16 142 103 174 173 35 75 28 83 -140 166 -33 16 -63 29 -66 28 -3 0 -13 5 -22 13 -10 7 -17 10 -17 6 0 -4 -6 -3 -12 2 -17 13 -78 16 -78 4 0 -5 -17 -1 -37 9 -21 10 -40 15 -43 11 -5 -6 -19 -7 -37 -1 -23 6 -59 4 -65 -5 -5 -6 -12 -4 -18 5 -5 8 -10 10 -10 4z m1196 -513 c-10 -16 -36 -13 -36 3 0 17 21 27 34 16 4 -5 5 -13 2 -19z m78 -52 c-3 -5 4 -9 15 -9 12 0 21 -4 21 -8 0 -5 16 -16 36 -25 21 -10 32 -22 28 -28 -5 -8 -10 -6 -16 5 -5 9 -14 14 -19 10 -6 -3 -18 4 -28 15 -10 12 -23 21 -29 21 -15 0 -63 46 -56 53 9 9 55 -24 48 -34z m-107 -9 c3 0 -1 8 -8 17 -11 13 -8 13 16 -3 117 -74 155 -106 155 -127 0 -19 -1 -19 -20 3 -11 13 -20 17 -20 10 0 -9 -6 -8 -20 5 -11 10 -17 22 -13 27 3 6 -1 14 -8 19 -24 15 -30 10 -19 -13 10 -20 9 -21 -2 -6 -8 9 -33 26 -56 38 -28 15 -42 29 -42 42 0 18 1 18 16 4 8 -9 18 -16 21 -16z m233 -146 c0 -8 -4 -14 -10 -14 -16 0 -51 40 -45 50 8 13 55 -18 55 -36z m105 -336 c-19 -11 -30 -5 -21 11 4 6 14 7 22 4 15 -5 14 -7 -1 -15z"/>
 <path d="M2910 1870 c0 -5 9 -14 20 -20 11 -6 20 -7 20 -3 0 5 -9 14 -20 21 -11 7 -20 8 -20 2z"/>
 <path d="M3236 1981 c8 -8 133 -41 151 -41 4 0 0 5 -10 11 -9 6 -15 14 -12 19 4 6 -3 6 -17 1 -15 -5 -39 -3 -68 5 -53 16 -57 17 -44 5z"/>
 <path d="M4848 1727 c-3 -13 -1 -32 3 -43 5 -13 8 -7 8 24 1 46 -4 55 -11 19z"/>
 <path d="M5171 1553 c-1 -9 -13 -11 -36 -8 -20 2 -35 0 -35 -6 0 -6 -3 -8 -8 -5 -17 10 -75 -10 -78 -27 -3 -23 30 -40 64 -33 32 7 92 -8 104 -26 11 -17 9 71 -2 97 -5 11 -9 14 -9 8z"/>
 <path d="M4850 1511 c-8 -17 -6 -20 21 -26 38 -9 42 -4 23 23 -19 27 -30 28 -44 3z"/>
 <path d="M3802 1455 c15 -16 30 -26 33 -23 4 3 -9 16 -27 28 l-33 23 27 -28z"/>
 <path d="M3850 1419 c0 -6 9 -13 20 -16 11 -3 17 -9 14 -14 -3 -5 10 -16 28 -24 18 -8 30 -14 26 -15 -4 0 -1 -8 7 -17 7 -10 23 -29 34 -43 l20 -25 -9 38 c-4 21 -10 40 -12 41 -41 33 -128 84 -128 75z"/>
 <path d="M1073 1400 c-26 -11 -39 -46 -23 -65 6 -7 26 -20 44 -29 38 -18 101 -22 91 -6 -3 6 3 10 15 10 13 0 18 -4 14 -11 -3 -6 7 -4 24 5 42 21 47 43 17 70 -37 34 -129 47 -182 26z m57 -30 c0 -5 -6 -10 -14 -10 -8 0 -18 5 -21 10 -3 6 3 10 14 10 12 0 21 -4 21 -10z"/>
 <path d="M5078 1400 c-102 -31 -120 -95 -31 -114 36 -8 116 10 108 24 -3 6 0 7 8 4 19 -7 58 42 50 62 -11 30 -77 42 -135 24z"/>
 <path d="M3075 980 c-3 -6 0 -10 8 -10 8 0 27 -10 42 -22 25 -19 27 -19 24 -3 -5 22 -65 50 -74 35z"/>
 <path d="M3633 903 c20 -2 54 -2 75 0 20 2 3 4 -38 4 -41 0 -58 -2 -37 -4z"/>
 <path d="M3358 893 c12 -2 30 -2 40 0 9 3 -1 5 -23 4 -22 0 -30 -2 -17 -4z"/>
 <path d="M3137 812 c3 -20 12 -64 20 -97 l15 -60 -26 -20 -26 -21 21 -18 c12 -9 24 -15 27 -12 9 10 15 171 8 218 -5 33 -11 44 -26 45 -16 1 -18 -4 -13 -35z"/>
 <path d="M3006 624 c-8 -20 0 -32 14 -18 5 5 5 15 1 22 -6 11 -10 10 -15 -4z"/>
 <path d="M3032 549 c-71 -21 -45 -72 36 -72 53 -1 106 25 99 46 -10 32 -73 44 -135 26z"/>
 </g>

</svg>